<mxfile host="app.diagrams.net" modified="2024-03-31T03:28:13.476Z" agent="Mozilla/5.0 (Windows NT 10.0; Win64; x64) AppleWebKit/537.36 (KHTML, like Gecko) Chrome/123.0.0.0 Safari/537.36" etag="k8wWgmC0R6_oD4dUrNPS" version="24.2.1" type="github">
  <diagram name="Page-1" id="c9db0220-8083-56f3-ca83-edcdcd058819">
    <mxGraphModel dx="1434" dy="738" grid="1" gridSize="10" guides="1" tooltips="1" connect="1" arrows="1" fold="1" page="1" pageScale="1.5" pageWidth="826" pageHeight="1169" background="none" math="0" shadow="0">
      <root>
        <mxCell id="0" style=";html=1;" />
        <mxCell id="1" style=";html=1;" parent="0" />
        <mxCell id="3d76a8aef4d5c911-1" value="" style="html=1;shadow=0;dashed=0;shape=mxgraph.bootstrap.rect;fillColor=#222222;strokeColor=none;whiteSpace=wrap;rounded=0;fontSize=12;fontColor=#000000;align=center;" parent="1" vertex="1">
          <mxGeometry x="40" y="70" width="1150" height="40" as="geometry" />
        </mxCell>
        <mxCell id="3d76a8aef4d5c911-2" value="Company" style="html=1;shadow=0;dashed=0;fillColor=none;strokeColor=none;shape=mxgraph.bootstrap.rect;fontColor=#999999;fontSize=14;whiteSpace=wrap;" parent="3d76a8aef4d5c911-1" vertex="1">
          <mxGeometry width="115" height="40" as="geometry" />
        </mxCell>
        <mxCell id="3d76a8aef4d5c911-3" value="People" style="html=1;shadow=0;dashed=0;shape=mxgraph.bootstrap.rect;fillColor=#000000;strokeColor=none;fontColor=#ffffff;spacingRight=30;whiteSpace=wrap;" parent="3d76a8aef4d5c911-1" vertex="1">
          <mxGeometry x="115" width="129.375" height="40" as="geometry" />
        </mxCell>
        <mxCell id="3d76a8aef4d5c911-4" value="84" style="html=1;shadow=0;dashed=0;shape=mxgraph.bootstrap.rrect;rSize=8;fillColor=#ff0000;strokeColor=none;fontColor=#ffffff;whiteSpace=wrap;" parent="3d76a8aef4d5c911-3" vertex="1">
          <mxGeometry x="1" y="0.5" width="25" height="16" relative="1" as="geometry">
            <mxPoint x="-30" y="-8" as="offset" />
          </mxGeometry>
        </mxCell>
        <mxCell id="3d76a8aef4d5c911-5" value="Violations" style="html=1;shadow=0;dashed=0;fillColor=none;strokeColor=none;shape=mxgraph.bootstrap.rect;fontColor=#999999;spacingRight=30;whiteSpace=wrap;" parent="3d76a8aef4d5c911-1" vertex="1">
          <mxGeometry x="244.375" width="158.125" height="40" as="geometry" />
        </mxCell>
        <mxCell id="3d76a8aef4d5c911-6" value="42" style="html=1;shadow=0;dashed=0;shape=mxgraph.bootstrap.rrect;rSize=8;fillColor=#ff0000;strokeColor=none;fontColor=#ffffff;whiteSpace=wrap;" parent="3d76a8aef4d5c911-5" vertex="1">
          <mxGeometry x="1" y="0.5" width="25" height="16" relative="1" as="geometry">
            <mxPoint x="-30" y="-8" as="offset" />
          </mxGeometry>
        </mxCell>
        <mxCell id="3d76a8aef4d5c911-7" value="Statistics" style="html=1;shadow=0;dashed=0;fillColor=none;strokeColor=none;shape=mxgraph.bootstrap.rect;fontColor=#999999;whiteSpace=wrap;" parent="3d76a8aef4d5c911-1" vertex="1">
          <mxGeometry x="402.5" width="115" height="40" as="geometry" />
        </mxCell>
        <mxCell id="3d76a8aef4d5c911-8" value="Settings" style="html=1;shadow=0;dashed=0;fillColor=none;strokeColor=none;shape=mxgraph.bootstrap.rect;fontColor=#999999;whiteSpace=wrap;" parent="3d76a8aef4d5c911-1" vertex="1">
          <mxGeometry x="517.5" width="100.625" height="40" as="geometry" />
        </mxCell>
        <mxCell id="3d76a8aef4d5c911-9" value="Profile" style="html=1;shadow=0;dashed=0;fillColor=none;strokeColor=none;shape=mxgraph.bootstrap.rect;fontColor=#999999;whiteSpace=wrap;" parent="3d76a8aef4d5c911-1" vertex="1">
          <mxGeometry x="948.75" width="100.625" height="40" as="geometry" />
        </mxCell>
        <mxCell id="3d76a8aef4d5c911-10" value="Log Out" style="html=1;shadow=0;dashed=0;fillColor=none;strokeColor=none;shape=mxgraph.bootstrap.rect;fontColor=#999999;whiteSpace=wrap;" parent="3d76a8aef4d5c911-1" vertex="1">
          <mxGeometry x="1049.375" width="100.625" height="40" as="geometry" />
        </mxCell>
        <mxCell id="3d76a8aef4d5c911-11" value="" style="html=1;shadow=0;dashed=0;shape=mxgraph.bootstrap.rrect;rSize=5;strokeColor=#dddddd;rounded=0;fontSize=12;align=center;" parent="1" vertex="1">
          <mxGeometry x="860" y="150" width="330" height="400" as="geometry" />
        </mxCell>
        <mxCell id="3d76a8aef4d5c911-12" value="320x200" style="shape=rect;fontSize=24;fillColor=#f0f0f0;strokeColor=none;fontColor=#999999;whiteSpace=wrap;" parent="3d76a8aef4d5c911-11" vertex="1">
          <mxGeometry x="5" y="5" width="320" height="200" as="geometry" />
        </mxCell>
        <mxCell id="3d76a8aef4d5c911-13" value="Thumbnail label" style="html=1;shadow=0;dashed=0;shape=mxgraph.bootstrap.anchor;fontSize=26;align=left;whiteSpace=wrap;" parent="3d76a8aef4d5c911-11" vertex="1">
          <mxGeometry x="15" y="220" width="300" height="40" as="geometry" />
        </mxCell>
        <mxCell id="3d76a8aef4d5c911-14" value="Cras justo odio, dapibus ac facilisis in, egestas eget quam. Donec id elit non mi porta gravida at eget metus. Nullam id dolor id nibh ultricies vehicula ut id elit." style="html=1;shadow=0;dashed=0;shape=mxgraph.bootstrap.anchor;strokeColor=#dddddd;whiteSpace=wrap;align=left;verticalAlign=top;fontSize=14;whiteSpace=wrap;" parent="3d76a8aef4d5c911-11" vertex="1">
          <mxGeometry x="15" y="260" width="300" height="80" as="geometry" />
        </mxCell>
        <mxCell id="3d76a8aef4d5c911-15" value="Button" style="html=1;shadow=0;dashed=0;shape=mxgraph.bootstrap.rrect;rSize=5;fontSize=16;fillColor=#3D8BCD;strokeColor=none;fontColor=#ffffff;whiteSpace=wrap;" parent="3d76a8aef4d5c911-11" vertex="1">
          <mxGeometry y="1" width="80" height="40" relative="1" as="geometry">
            <mxPoint x="15" y="-60" as="offset" />
          </mxGeometry>
        </mxCell>
        <mxCell id="3d76a8aef4d5c911-16" value="Button" style="html=1;shadow=0;dashed=0;shape=mxgraph.bootstrap.rrect;rSize=5;fontSize=16;strokeColor=#dddddd;whiteSpace=wrap;" parent="3d76a8aef4d5c911-11" vertex="1">
          <mxGeometry y="1" width="80" height="40" relative="1" as="geometry">
            <mxPoint x="100" y="-60" as="offset" />
          </mxGeometry>
        </mxCell>
        <mxCell id="3d76a8aef4d5c911-17" value="Template name" style="html=1;shadow=0;dashed=0;shape=mxgraph.bootstrap.rect;strokeColor=none;fillColor=none;fontColor=#999999;align=left;spacingLeft=5;whiteSpace=wrap;rounded=0;" parent="1" vertex="1">
          <mxGeometry x="40" y="130" width="200" height="20" as="geometry" />
        </mxCell>
        <mxCell id="3d76a8aef4d5c911-18" value="Uncompleted Profile" style="html=1;shadow=0;dashed=0;shape=mxgraph.bootstrap.rrect;rSize=5;strokeColor=#dddddd;;align=left;spacingLeft=10;fontSize=16;whiteSpace=wrap;rounded=0;" parent="1" vertex="1">
          <mxGeometry x="40" y="150" width="800" height="40" as="geometry" />
        </mxCell>
        <mxCell id="3d76a8aef4d5c911-19" value="Subject" style="html=1;shadow=0;dashed=0;shape=mxgraph.bootstrap.rect;strokeColor=none;fillColor=none;fontColor=#999999;align=left;spacingLeft=5;whiteSpace=wrap;rounded=0;" parent="1" vertex="1">
          <mxGeometry x="40" y="210" width="200" height="20" as="geometry" />
        </mxCell>
        <mxCell id="3d76a8aef4d5c911-20" value="Hello, %USER_FULL_NAME%" style="html=1;shadow=0;dashed=0;shape=mxgraph.bootstrap.rrect;rSize=5;strokeColor=#dddddd;align=left;spacingLeft=10;fontSize=16;whiteSpace=wrap;rounded=0;" parent="1" vertex="1">
          <mxGeometry x="40" y="230" width="800" height="40" as="geometry" />
        </mxCell>
        <mxCell id="3d76a8aef4d5c911-21" value="Insert System Variable" style="html=1;shadow=0;dashed=0;shape=mxgraph.bootstrap.rect;strokeColor=none;fillColor=none;align=right;fontSize=10;whiteSpace=wrap;rounded=0;" parent="1" vertex="1">
          <mxGeometry x="690" y="210" width="120" height="20" as="geometry" />
        </mxCell>
        <mxCell id="3d76a8aef4d5c911-22" value="" style="shape=triangle;strokeColor=none;fillColor=#000000;direction=south;rounded=0;shadow=1;fontSize=12;fontColor=#000000;align=center;html=1;" parent="1" vertex="1">
          <mxGeometry x="812" y="217" width="8" height="4" as="geometry" />
        </mxCell>
        <mxCell id="3d76a8aef4d5c911-23" value="Message" style="html=1;shadow=0;dashed=0;shape=mxgraph.bootstrap.rect;strokeColor=none;fillColor=none;fontColor=#999999;align=left;spacingLeft=5;whiteSpace=wrap;rounded=0;" parent="1" vertex="1">
          <mxGeometry x="40" y="290" width="200" height="20" as="geometry" />
        </mxCell>
        <mxCell id="3d76a8aef4d5c911-24" value="Hello %USER_FULL_NAME%!&#xa;&#xa;At vero eos et accusamus et iusto odio dignissimos ducimus, qui blanditiis praesentium voluptatum deleniti atque corrupti, quosdolores et quas molestias excepturi sint, obcaecati cupiditate non provident, similique sunt in culpa, qui officia deserunt mollitiaanimi, id est laborum et dolorum fuga. Et harum quidem rerum facilis est et expedita distinctio. Nam libero tempore, cum solutanobis est eligendi optio, cumque nihil impedit, quo minus id, quod maxime placeat, facere possimus, omnis voluptas assumendaest, omnis dolor repellendus." style="html=1;shadow=0;dashed=0;shape=mxgraph.bootstrap.rrect;rSize=5;fontSize=12;strokeColor=#dddddd;align=left;spacing=10;verticalAlign=top;whiteSpace=wrap;rounded=0;" parent="1" vertex="1">
          <mxGeometry x="40" y="310" width="800" height="240" as="geometry" />
        </mxCell>
        <mxCell id="3d76a8aef4d5c911-25" value="Insert System Variable" style="html=1;shadow=0;dashed=0;shape=mxgraph.bootstrap.rect;strokeColor=none;fillColor=none;align=right;fontSize=10;whiteSpace=wrap;rounded=0;" parent="1" vertex="1">
          <mxGeometry x="690" y="290" width="120" height="20" as="geometry" />
        </mxCell>
        <mxCell id="3d76a8aef4d5c911-26" value="" style="shape=triangle;strokeColor=none;fillColor=#000000;direction=south;rounded=0;shadow=1;fontSize=12;fontColor=#000000;align=center;html=1;" parent="1" vertex="1">
          <mxGeometry x="812" y="297" width="8" height="4" as="geometry" />
        </mxCell>
        <mxCell id="3d76a8aef4d5c911-27" value="%USER_FULL_NAME%&#xa;%USER_EMAIL%&#xa;%USER_PROFILE_COMPLETENESS%&#xa;%USER_NUM_SUCCESS_TRADES%&#xa;%USER_FULL_NAME%&#xa;%USER_EMAIL%&#xa;%USER_PROFILE_COMPLETENESS%&#xa;%USER_NUM_SUCCESS_SELLS%" style="html=1;shadow=0;dashed=0;shape=mxgraph.bootstrap.rrect;fontSize=12;rSize=2;strokeColor=#dddddd;align=left;verticalAlign=top;spacing=10;shadow=1;whiteSpace=wrap;rounded=0;" parent="1" vertex="1">
          <mxGeometry x="590" y="305" width="240" height="140" as="geometry" />
        </mxCell>
        <mxCell id="3d76a8aef4d5c911-28" value="Message Type" style="html=1;shadow=0;dashed=0;shape=mxgraph.bootstrap.rect;strokeColor=none;fillColor=none;fontColor=#999999;align=left;spacingLeft=5;whiteSpace=wrap;rounded=0;" parent="1" vertex="1">
          <mxGeometry x="40" y="570" width="200" height="20" as="geometry" />
        </mxCell>
        <mxCell id="3d76a8aef4d5c911-29" value="Email + Push" style="html=1;shadow=0;dashed=0;shape=mxgraph.bootstrap.rrect;rSize=5;strokeColor=#dddddd;align=left;spacingLeft=10;fontSize=16;whiteSpace=wrap;rounded=0;" parent="1" vertex="1">
          <mxGeometry x="40" y="590" width="390" height="40" as="geometry" />
        </mxCell>
        <mxCell id="3d76a8aef4d5c911-30" value="" style="shape=triangle;strokeColor=none;fillColor=#000000;direction=south;rounded=0;shadow=1;fontSize=12;fontColor=#000000;align=center;html=1;" parent="1" vertex="1">
          <mxGeometry x="410" y="607" width="10" height="5" as="geometry" />
        </mxCell>
        <mxCell id="3d76a8aef4d5c911-31" value="Tap target" style="html=1;shadow=0;dashed=0;shape=mxgraph.bootstrap.rect;strokeColor=none;fillColor=none;fontColor=#999999;align=left;spacingLeft=5;whiteSpace=wrap;rounded=0;" parent="1" vertex="1">
          <mxGeometry x="450" y="570" width="200" height="20" as="geometry" />
        </mxCell>
        <mxCell id="3d76a8aef4d5c911-32" value="Profile Screen" style="html=1;shadow=0;dashed=0;shape=mxgraph.bootstrap.rrect;rSize=5;strokeColor=#dddddd;align=left;spacingLeft=10;fontSize=16;whiteSpace=wrap;rounded=0;" parent="1" vertex="1">
          <mxGeometry x="450" y="590" width="390" height="40" as="geometry" />
        </mxCell>
        <mxCell id="3d76a8aef4d5c911-33" value="" style="shape=triangle;strokeColor=none;fillColor=#000000;direction=south;rounded=0;shadow=1;fontSize=12;fontColor=#000000;align=center;html=1;" parent="1" vertex="1">
          <mxGeometry x="820" y="607" width="10" height="5" as="geometry" />
        </mxCell>
        <mxCell id="3d76a8aef4d5c911-34" value="Send to Group" style="html=1;shadow=0;dashed=0;shape=mxgraph.bootstrap.rect;strokeColor=none;fillColor=none;fontColor=#999999;align=left;spacingLeft=5;whiteSpace=wrap;rounded=0;" parent="1" vertex="1">
          <mxGeometry x="40" y="650" width="200" height="20" as="geometry" />
        </mxCell>
        <mxCell id="3d76a8aef4d5c911-35" value="Top Management" style="html=1;shadow=0;dashed=0;shape=mxgraph.bootstrap.checkbox;fontSize=12;strokeColor=#999999;align=left;labelPosition=right;spacingLeft=5;rounded=0;" parent="1" vertex="1">
          <mxGeometry x="50" y="673" width="14" height="14" as="geometry" />
        </mxCell>
        <mxCell id="3d76a8aef4d5c911-36" value="Marketing Department" style="html=1;shadow=0;dashed=0;shape=mxgraph.bootstrap.rrect;fontSize=12;rSize=3;strokeColor=#999999;align=left;labelPosition=right;spacingLeft=5;rounded=0;" parent="1" vertex="1">
          <mxGeometry x="50" y="693" width="14" height="14" as="geometry" />
        </mxCell>
        <mxCell id="3d76a8aef4d5c911-37" value="Design Department" style="html=1;shadow=0;dashed=0;shape=mxgraph.bootstrap.checkbox;fontSize=12;strokeColor=#999999;align=left;labelPosition=right;spacingLeft=5;rounded=0;" parent="1" vertex="1">
          <mxGeometry x="50" y="713" width="14" height="14" as="geometry" />
        </mxCell>
        <mxCell id="3d76a8aef4d5c911-38" value="Financial Department" style="html=1;shadow=0;dashed=0;shape=mxgraph.bootstrap.rrect;fontSize=12;rSize=3;strokeColor=#999999;align=left;labelPosition=right;spacingLeft=5;rounded=0;" parent="1" vertex="1">
          <mxGeometry x="50" y="733" width="14" height="14" as="geometry" />
        </mxCell>
        <mxCell id="3d76a8aef4d5c911-39" value="Supply Department" style="html=1;shadow=0;dashed=0;shape=mxgraph.bootstrap.rrect;fontSize=12;rSize=3;strokeColor=#999999;align=left;labelPosition=right;spacingLeft=5;rounded=0;" parent="1" vertex="1">
          <mxGeometry x="50" y="753" width="14" height="14" as="geometry" />
        </mxCell>
        <mxCell id="3d76a8aef4d5c911-40" value="Set Type" style="html=1;shadow=0;dashed=0;shape=mxgraph.bootstrap.rect;strokeColor=none;fillColor=none;fontColor=#999999;align=left;spacingLeft=5;whiteSpace=wrap;rounded=0;" parent="1" vertex="1">
          <mxGeometry x="450" y="650" width="200" height="20" as="geometry" />
        </mxCell>
        <mxCell id="3d76a8aef4d5c911-41" value="" style="shape=ellipse;dashed=0;strokeColor=#999999;fillColor=#ffffff;html=1;rounded=0;shadow=1;fontSize=12;fontColor=#000000;align=center;" parent="1" vertex="1">
          <mxGeometry x="460" y="673" width="14" height="14" as="geometry" />
        </mxCell>
        <mxCell id="3d76a8aef4d5c911-42" value="News" style="html=1;shadow=0;dashed=0;shape=mxgraph.bootstrap.rrect;align=center;rSize=3;strokeColor=none;fillColor=#58B957;fontColor=#ffffff;fontStyle=1;fontSize=10;whiteSpace=wrap;rounded=0;" parent="1" vertex="1">
          <mxGeometry x="480" y="673" width="40" height="14" as="geometry" />
        </mxCell>
        <mxCell id="3d76a8aef4d5c911-43" value="" style="html=1;shadow=0;dashed=0;shape=mxgraph.bootstrap.radioButton;strokeColor=#999999;fillColor=#ffffff;rounded=0;fontSize=12;fontColor=#000000;align=center;" parent="1" vertex="1">
          <mxGeometry x="460" y="693" width="14" height="14" as="geometry" />
        </mxCell>
        <mxCell id="3d76a8aef4d5c911-44" value="Reports" style="html=1;shadow=0;dashed=0;shape=mxgraph.bootstrap.rrect;align=center;rSize=3;strokeColor=none;fillColor=#55BFE0;fontColor=#ffffff;fontStyle=1;fontSize=10;whiteSpace=wrap;rounded=0;" parent="1" vertex="1">
          <mxGeometry x="480" y="693" width="50" height="14" as="geometry" />
        </mxCell>
        <mxCell id="3d76a8aef4d5c911-45" value="" style="shape=ellipse;dashed=0;strokeColor=#999999;fillColor=#ffffff;html=1;rounded=0;shadow=1;fontSize=12;fontColor=#000000;align=center;" parent="1" vertex="1">
          <mxGeometry x="460" y="713" width="14" height="14" as="geometry" />
        </mxCell>
        <mxCell id="3d76a8aef4d5c911-46" value="Documents" style="html=1;shadow=0;dashed=0;shape=mxgraph.bootstrap.rrect;align=center;rSize=3;strokeColor=none;fillColor=#EFAC43;fontColor=#ffffff;fontStyle=1;fontSize=10;whiteSpace=wrap;rounded=0;" parent="1" vertex="1">
          <mxGeometry x="480" y="713" width="70" height="14" as="geometry" />
        </mxCell>
        <mxCell id="3d76a8aef4d5c911-47" value="" style="shape=ellipse;dashed=0;strokeColor=#999999;fillColor=#ffffff;html=1;rounded=0;shadow=1;fontSize=12;fontColor=#000000;align=center;" parent="1" vertex="1">
          <mxGeometry x="460" y="733" width="14" height="14" as="geometry" />
        </mxCell>
        <mxCell id="3d76a8aef4d5c911-48" value="Media" style="html=1;shadow=0;dashed=0;shape=mxgraph.bootstrap.rrect;align=center;rSize=3;strokeColor=none;fillColor=#3D8BCD;fontColor=#ffffff;fontStyle=1;fontSize=10;whiteSpace=wrap;rounded=0;" parent="1" vertex="1">
          <mxGeometry x="480" y="733" width="40" height="14" as="geometry" />
        </mxCell>
        <mxCell id="3d76a8aef4d5c911-49" value="" style="shape=ellipse;dashed=0;strokeColor=#999999;fillColor=#ffffff;html=1;rounded=0;shadow=1;fontSize=12;fontColor=#000000;align=center;" parent="1" vertex="1">
          <mxGeometry x="460" y="753" width="14" height="14" as="geometry" />
        </mxCell>
        <mxCell id="3d76a8aef4d5c911-50" value="Text" style="html=1;shadow=0;dashed=0;shape=mxgraph.bootstrap.rrect;align=center;rSize=3;strokeColor=none;fillColor=#999999;fontColor=#ffffff;fontStyle=1;fontSize=10;whiteSpace=wrap;rounded=0;" parent="1" vertex="1">
          <mxGeometry x="480" y="753" width="30" height="14" as="geometry" />
        </mxCell>
        <mxCell id="3d76a8aef4d5c911-51" value="Save Template" style="html=1;shadow=0;dashed=0;shape=mxgraph.bootstrap.rrect;align=center;rSize=5;strokeColor=none;fillColor=#3D8BCD;fontColor=#ffffff;fontSize=16;whiteSpace=wrap;rounded=0;" parent="1" vertex="1">
          <mxGeometry x="40" y="810" width="150" height="40" as="geometry" />
        </mxCell>
        <mxCell id="3d76a8aef4d5c911-52" value="Cancel" style="html=1;shadow=0;dashed=0;shape=mxgraph.bootstrap.rrect;align=center;rSize=5;strokeColor=#dddddd;fontSize=16;whiteSpace=wrap;rounded=0;" parent="1" vertex="1">
          <mxGeometry x="210" y="810" width="100" height="40" as="geometry" />
        </mxCell>
        <mxCell id="3d76a8aef4d5c911-53" value="Delete Template" style="html=1;shadow=0;dashed=0;shape=mxgraph.bootstrap.rrect;align=center;rSize=5;strokeColor=none;fillColor=#DB524C;fontColor=#ffffff;fontSize=16;whiteSpace=wrap;rounded=0;" parent="1" vertex="1">
          <mxGeometry x="670" y="810" width="170" height="40" as="geometry" />
        </mxCell>
        <mxCell id="3d76a8aef4d5c911-54" value="" style="html=1;shadow=0;dashed=0;shape=mxgraph.bootstrap.rrect;rSize=5;strokeColor=#dddddd;rounded=0;fontSize=12;align=center;" parent="1" vertex="1">
          <mxGeometry x="860" y="580" width="330" height="400" as="geometry" />
        </mxCell>
        <mxCell id="3d76a8aef4d5c911-55" value="320x200" style="shape=rect;fontSize=24;fillColor=#f0f0f0;strokeColor=none;fontColor=#999999;whiteSpace=wrap;" parent="3d76a8aef4d5c911-54" vertex="1">
          <mxGeometry x="5" y="5" width="320" height="200" as="geometry" />
        </mxCell>
        <mxCell id="3d76a8aef4d5c911-56" value="Thumbnail label" style="html=1;shadow=0;dashed=0;shape=mxgraph.bootstrap.anchor;fontSize=26;align=left;whiteSpace=wrap;" parent="3d76a8aef4d5c911-54" vertex="1">
          <mxGeometry x="15" y="220" width="300" height="40" as="geometry" />
        </mxCell>
        <mxCell id="3d76a8aef4d5c911-57" value="Cras justo odio, dapibus ac facilisis in, egestas eget quam. Donec id elit non mi porta gravida at eget metus. Nullam id dolor id nibh ultricies vehicula ut id elit." style="html=1;shadow=0;dashed=0;shape=mxgraph.bootstrap.anchor;strokeColor=#dddddd;whiteSpace=wrap;align=left;verticalAlign=top;fontSize=14;whiteSpace=wrap;" parent="3d76a8aef4d5c911-54" vertex="1">
          <mxGeometry x="15" y="260" width="300" height="80" as="geometry" />
        </mxCell>
        <mxCell id="3d76a8aef4d5c911-58" value="Button" style="html=1;shadow=0;dashed=0;shape=mxgraph.bootstrap.rrect;rSize=5;fontSize=16;fillColor=#3D8BCD;strokeColor=none;fontColor=#ffffff;whiteSpace=wrap;" parent="3d76a8aef4d5c911-54" vertex="1">
          <mxGeometry y="1" width="80" height="40" relative="1" as="geometry">
            <mxPoint x="15" y="-60" as="offset" />
          </mxGeometry>
        </mxCell>
        <mxCell id="3d76a8aef4d5c911-59" value="Button" style="html=1;shadow=0;dashed=0;shape=mxgraph.bootstrap.rrect;rSize=5;fontSize=16;strokeColor=#dddddd;whiteSpace=wrap;" parent="3d76a8aef4d5c911-54" vertex="1">
          <mxGeometry y="1" width="80" height="40" relative="1" as="geometry">
            <mxPoint x="100" y="-60" as="offset" />
          </mxGeometry>
        </mxCell>
        <mxCell id="xjHob3qZV44p0iBS6s6t-1" value="" style="html=1;shadow=1;dashed=0;shape=mxgraph.bootstrap.rrect;rSize=5;strokeColor=#dddddd;rounded=0;fontSize=12;align=center;" vertex="1" parent="1">
          <mxGeometry x="40" y="1060" width="420" height="520" as="geometry" />
        </mxCell>
        <mxCell id="xjHob3qZV44p0iBS6s6t-3" value="Tarefas" style="html=1;shadow=0;dashed=0;shape=mxgraph.bootstrap.anchor;fontSize=26;align=left;whiteSpace=wrap;" vertex="1" parent="xjHob3qZV44p0iBS6s6t-1">
          <mxGeometry x="5.185185185185184" y="13" width="155.55555555555554" height="52" as="geometry" />
        </mxCell>
        <mxCell id="xjHob3qZV44p0iBS6s6t-7" value="&amp;lt;tags para pesquisar&amp;gt;" style="html=1;shadow=0;dashed=0;shape=mxgraph.bootstrap.rrect;rSize=5;strokeColor=#dddddd;;align=left;spacingLeft=10;fontSize=16;whiteSpace=wrap;rounded=0;" vertex="1" parent="xjHob3qZV44p0iBS6s6t-1">
          <mxGeometry x="5.189333333333332" y="78" width="358.8106666666666" height="52" as="geometry" />
        </mxCell>
        <mxCell id="xjHob3qZV44p0iBS6s6t-33" value="" style="shape=image;verticalLabelPosition=bottom;labelBackgroundColor=default;verticalAlign=top;aspect=fixed;imageAspect=0;image=data:image/png,iVBORw0KGgoAAAANSUhEUgAAAQAAAAEACAYAAABccqhmAAAABHNCSVQICAgIfAhkiAAAAAlwSFlzAAAFiQAABYkBbWid+gAAABl0RVh0U29mdHdhcmUAd3d3Lmlua3NjYXBlLm9yZ5vuPBoAACAASURBVHic7Z13eFRV+sc/d/qkd0JPoffeexPBghVde++69raW9Wd3XbuuuiK6lsVVLIioCNJBQHpvSeglQHqdyfz+GEZDMvfcO5nJzCQ5n+fJg3DOPfeYe9/vPeU976sgkYQWO5ABpAHpp/5MARKr/cQDBsAIxJy6rgwoPfXfhcBJILfaz14g+9RPFnCsfv83GiZKqDsgaVKkAIOBnkCPU39m4Dbu+iYXWA9sOPWzEtgKuIJw77BFCoCkPmkNTACGA0OA9qHtTi1OAMuApcA84HegKqQ9kkgaMEZgFPAisBH317Uh/RwB/gP8BYgN7K9GImmcGIBhwGvAQUJvxIH6KQNmAVfy57qDRCI5RXPgQWAPoTfW+v4pBb4AxiGnzZImjAKMB74FHITeMEPxsxm4HYjy83cZFkg1k+jBAlwK3IN79b7eMBgMxCckERMbR0xsHNGxcdjtEVitNsxm82l1XUBxUSGVlZUU5udRWJhPQX4ex3OPUllRUZ/dBPe247+AN4BD9X2z+kIKgESEBbgBeBhoGciG7RGRNG+VRuu2GWS060Drtmk0S21BUnIKJpNZuwEN8k4e5+jhQxw9fJC9OXvI2bOLnKxdHDt6OAC9P40KYBrwDLA/0I3XN1IAJN4wA1cBjwFtAtFgsxatyejQhYz2Xcjo0JmMjHZERtgwGoLhAvAnhQX5bN+6kW2bN7Bt8wZ2bd9MZWVlIJouA94DngMCrjL1hRQASU0mAy8DHf1pxGqz07FrL7r06EfnHn2JT0zGYjYRZbdhs1lRwuTNKy8rZeO631mzahlrVi4LxAihGHge9++wVKNuyAmTxyAJAzoC/wDOqmsDZrOFjl170WvAMHr2G4LVZgfAYjETE2HDarUEqKv1x76cPSxbNJ9F8+Zw+NABf5raDzyK26/AFZDO1QNSACQ24G/AA7iH/j7TNrMjQ0ZNpM/A4X8YPYDFYiImMgKrxf85fbBxuVxs2biWuT98y4qlv/qzqPgLcBPu7dKwQwpA02YY8D7QydcLzRYL/YeOYcS4s2jROv30MpOJmKgIbNaGZ/jeKCzIZ8HcH5j9zYy6ThFKcK+nvAY4A9o5P5EC0DSx4l6sugsfD+JERccyfNxkho2dTHRM3GllBoOBmEg7ERG2RvliOZ1Oli+ez3dffcbuHVvr0sQK4HJgd2B7Vnca43OSiOkMfAr09uWiiMhoRk44m9ETz8Nmj6hdbrcSGxWJwdA0XqkNa1fxybS36yIEJcAjuEcDIadpPC2Jh5uBf+I+g68Li9XG2EkXMHriFK+GbzIaiIuJapDzfH9xuVysXLaQTz98hwP7cny9/AvgetyxDEKGFICmgQ14E7hO7wWKotCr/1CmXHo98YnJXutERdiIiYpACZc9vRDhdDqZ/9MsPpv+Lwry83y5dAdwAbCpfnqmTdN+ck2DNGAmPgz5W7bJ4JJr76BtRgev5QaDQnxsFDZL+G/rBZPCgnw+mfYW836chcule+evELgW+LL+eqaOMRQ3lQSNgcB8oJ2eymazhTPOncoVN92r+tW3Wswkx8dgNpkC2M3GgdVqo/+g4XTv1Z/tWzdSWJCv6zLgItwf4wX12T9vSAFovFyI+9RenFZFgLR2nbjtgafp2X8oBhX33OgIO/GxUU1+yK9FckoqY884h8qKCnZs24wOPyAFdyCVNsAcghiVSD7JxsnduL36NLf4DAYDE86ZysRzL8Vg9P49MCgKcTGR2G3WAHez8bNh7Sre+MdTnMjVHZN0LnA+UFR/vfoTKQCNj8eBv+upGJeQxDW3PUR6+86qdYxGA4lx0UEf8uedPMHJE7kU5OdRmJ9HaWkJVa4qSoqLMRgMREREYrPbsVpt2OwRRERGEhuXQFJyCooS3ANGWhQW5PPmy//H6hVL9F6yHJgE+LSiWBekADQunsLtcaZJZsduXHP7Q8TExqvWMZuMJMbFYDTWn0GdOJ7Ljq0bycnaTU7WLg7sy+HokYNUlJfXqT2z2Uxqi9Y0b/nnT8fO3WjdNiOkUxeXy8U3//uEzz58h6oqXSP8tcAZ1HM4cykAjYdXgL/qqTh64nmcO/Ua1SE/uBf7EuKiMQTYaAry89i8YQ0b161m0/rf67J/XieiY2Lp1LUHXbv3oXP3nmS066S61lGfrFm1nFeff5ziIl3b/5uB0dSjCEgBaBw8g9u7TIjBYOCCK25m+NjJwno2q5mE2OiAfTFzjx1h0bwfWbZoHtl7dvqyRVZvxMbFM3j4GIaNGk+nrj2COm04dGAfT//tbg4f1BU/ZD0wBncI84AjBaDh8yjwtFYlq83O1bc+SNde/YX17DYrCTFRfr8ZZaWlrFgynwW/zGHT+jW4XOEbbj8puRlDRoxl5LgzScsITuqCgvw8Xvj7A2zbvEFP9d9wx2IMuNegFICGzc3AO1qVIqNjuPX+p2mdlimsZ7NaSIiL9uulOHxwP19/8TGLf51LeVnYx8OoRbeefTn3wsvo3X9wva8ZlJeV8vyTD7Bh7So91efiDtYSkPBFHqQANFwm4o5bL1yej46N47YHnqFF6zRhY1aLmcS4mDpH6tmXs4evZ/yHJQt+xukMqxOvdSK1RSsmnXMR4ydNwWKtv+1Ph6OSV559jBVLF+ip/iFur8GAIR2BGia9gB/QONQTl5DEXY+8QGrL1sLGrBbTKeP33fr37NrOe2+8xLR3Xgmb+X0gKCosYO3qFfw6dzYxsXG0TW9XLyMCg8HIoKGjOLA/h305WVrVe+MOx744UPeXI4CGRwruHHatRJWiY+O465EXSGkurIbRaCAlIc7nY7xFhQV8Mu1tfpnzXcDm9xZ7BM3atic1rT2ZHTrSrUtHWqemEBUVTURUFPaICKJj3Bm7ysvKKC0pobAgn5LiIk6eOE727l1k795Jzp7dZO/eydHDgYvW3a5DF665+a906lo/UdGdDgcv/t9DenwFXLhdh78KxH2lADQsTLjngqNElewRkdzx8HO0aiue8xsMCikJcT7t87tcLn6dO5v//PtNX0++1SKuWUs6DhhJx/4jaN9vGCmt0mgZbSA9xoTV6P+refzYUVYtW8zKZYtZuWQRO7Zu1rsH7xVFURgyYixXXn87SSmpfvevJg5HJS88+QBrVi3XqloEDMK9TegXUgAaFi/jTs6hitli4c6Hn6dtpjior6JAUnwsFrN+D7+crN2898YLeleuvdxTIaPnQPpPuphOg0aT0tZ9RslsUGgTY6RNtBFzPQYUyTt5gvk/fs/3X33B0gXzcDocdWonIjKK6269h1HjJgW4h+6Fwcfuv1VPoJFtwAD83BmQAtBwOB+NYZ+iKFx7xyP07DdEs7G4mCgi7foXt+Z89yUfvfdanWLoJ7VKY+BZlzJg8iUkt8mo1l9oE20kM9aEKciRhE7kHmPOtzP59otPWfOb5hfXK4OGjeamOx8kJlbXeSvd5J08zsN3Xc/RI5pTmBnAJf7cSwpAw6AlboeQRFGl8/5yPaMnnqfZWKTdRlxMpK4blxQX8fYrz7J88Xxd9avTceAoJl53Lx0GjKy1gBZvNdA50UyUOfSv4PrfV/HBm6/w03czfd7BiE9I4tZ7HqVP/8EB7dP+vVk8cveNejwGrwGm1/U+of/tS7QwAD8DY0WV+g8ZzRU336fZmNlkIjkhVtd23+4dW3n52b9xxIf4+Iqi0G34GUy84QHSe9R2OrIYFTrFm0iNDL8NqP052Xz4zmv8d/q/KS8r032doihccuWNXHDp1QHdKVi/ZiVPP/pXrXWLYqAP7uhCPhN+T0FSk7txO/yo0jotk+vvegyjwLcf3C9qUry+wz2//jybF5960KeFvs6Dx3DDy58y9orbiW9WO5Vggs1A32YW4qzhdVrPQ0xcHCPHTWTK1Ms4duQwu7Zt0X3tpvW/c/jgfvoOGKr5HPSS2rwl4GLzhjWiahagP+5RgM97sFIAwpt2uINHqkbcjIiM5o6HnyUqOlazsfiYKKw6YvXP/noG7735ou7hcGxSKpc88jLn3/ssMUnNapUrCmTGmeiaaA76XL8uxMTGcea5FzBy/ER2bd/CoQP6cn7mZO1mw7pV9Bs4DJtdd9xVIV2692LXjq0cOrBPVK0VkI/7GLFPSAEIXxTcizzC5fzLb7yHjA5dNBuzWS3ERteO6lsdl8vFR++/zoz/vK+rgwajidGX38qN//yUtG59vd/XqNA3xULzSGODm2+mtmjJhZdfTVJyCr8tXojDob0Aejz3KMsXzaPvwKF/+Cz4g6Io9Oo7kEXzfqSstERUdTju9+WkL+1LAQhfrkPjeO/gkRMYf/bFmg0pikJSXIzQ2cfpcPDmy0/z8+yvdXUusUUbbn97JkPOuxKTSnDQaItC/1QLkebwHPLrQVEUevTpx5lTLmTD7ys5cuig5jUlxUWsWLqAAYNHEBUd43cfrDYbbdMzWTT/J1E1M+4MT5/40rYUgPAkHnc8P9VPdnKzFlx/198wmbSH9PEacfurqqp4+ZlHWbrwF12d6znmLG57a+ZpW3o1SbQZ6JNiwRIAh55wID4hkQsvuwqDwcDqFctwaTgUlZaU8NvSBfQfEhgRSG3RiuKiInZsE0YQz8TtHKR78aLhSnPj5kkgSa1QURSmXn3baYk41bBaTEQI9vtdLhfvvv48v+k4jGIwmphy11Pc+M/PiIhR3/tuFWWkT4qlQcz3fcFoMnHnQ4/zwf9m6dr7P557lMfvu8XfLMN/cNk1t5DaQuzajTvxi3iuVw05Agg/OgHTEDyboaPPZOSEczQbUoCEuGiMgsg3n3/0LrO/nqHZlj06ljve+Yb+ky4WbnW1jjbSJdFc51OFDYE26RmMm3wui+f9RP5J8ZS7tKSYlcsWMXz0eK+ZlXzBaDKRltGOBb/8IKoWizv9mK4DQ3IEEH68iGDVPzY+gXOmXqOrocgIuzCY54+zvuKrz6drthOT1Iy7P/iBdn3EHoYtIo10SmgaKcIyO3Tkq3nLGDxitGbd3KOHefaxe+sc57A6XXv0YfR4cUQn4GGg9naMF+QIILzoB7yEwEFr6tW3qWbsqY7BYBCG9Vq+eD5vvfwMWlvHKW0yufuDOaSmi88WNIsw0j2pcX/5a2Kz2zn7gqls3biBrF1iP5yTJ3I5dvQwg4aO8vu+nbr24Jc531JZUaFWxYLbtoWrhiAFINyYjnshxytp7Tpx/mU36vI2i4m0q+75Hz64n2ceu4fKStUXCICWHbpx9wdziGvWQlgvyW6gV7KlSRm/B6PRyMRzztclAjlZu7BYrXTu2tOve1ptNkwmM+t+/01UrTfwEVAgqiSnAOHDCNxx37yiKAoX6DR+o8FAZITNa1llZSX/eOYRSkuKhW0ktmzL7e98TXSC9xRhHiLNCj2a2Je/JmaLhbc+nsGYiWdp1v102jusWbnM73tOOvciWrRqK6piwz0VECIFIHx4VFTYq/9QzSO+HqIj7apCMf3dVzW/VNEJydzxr2+JTRKfeTcqCr2SGt9qf13wiMCw0eOE9VyuKt765zN+x1Iwmkz85eqbtKpdBzQXVZACEB50Q+Prf8a5l+pqyGAwEGn3/vVfvng+P84SB5KxRUZx21tfkdJGHExEAXokmYi0SOP3YLZYePPjGbTvJPbMzDt5nHdefc7v+w0aNpr0dsL1ICtwq6iCFIDw4D4EC3/9Bo/SDOrpITrC5rWlvJMnNF86xWDguhc/ok0X7Uzi6XEmkiPkElJNoqJjeOfTr4iLTxDWW7lsoZZnnyaKonDJFTdqVbsViFIrlAIQelIRBHVQFIUJ5+qL+aAoChEqc/+P339D82z5hGvupuuwCZr3iTYrZMY03fTgpWKffNIy2/HOp19iVnGR9vD+my+Re+yIX33pN2iY1iggAbhKrVAKQOi5DvdQzSvdeg+gmUZgTw+RdqvXVF6bN6xl0fwfhddm9h7M2bf9TfMeigLdmuiKP8C7r77EXyaNoaRYnLy3/5Dh/PWRJ4V1SoqLmP7ua3736dwLL9OqonqcXApAaFFwR3RRZfSZ5+tuzNvc3+l08sHbLwvDdUfGxnPNc//GYNT+qmfGmIgOgyg+oeDdV1/ipScfYePa37np0vM1HXtuuPNeBgwdIayzfPF8tm5a51e/howYR7I4SGk33EFEayEFILSMQ7Dv3zotk3Ydu+lqyGo1YzLVnpN/P/NzcrJ2Ca+9/Mm3SWjeRvMe0WaF9NimOfT3GL+H5Yt+5cHbrhdG6zEYDLzw1r+JjIoWtv3Re6/7lU/BaDQyaYrmqdAbvP2jFIDQcp2ocOho/VFnvX39iwoL+N+n04TXdR95Jj3HaO9fA3SIb5r7/a8//3+nGb+HWV/+l7deelZ4beu0dP723MvCOju3b2HJgp/96uOocZMwm4Vu2FOBWoEgpQCEjghA1fKsNjt9BomHjx4MBgN2LwtOP3z7hXDBymKL4OIHX9J1j0S7gUR703td3n31JV5//inV8jde+D+WLRQHTL3oimvoP2S4sM6n094RufZqEhMbx4AhI0VVIvHyvjW9Jxo+nIUXRfbQd9BI3afH7DZLra2/8rJS5nz3pfC6idffR2JLoTcZ4G66Q1zTOORTHafTyYrFC4R1qqqquO+maziRe0xY77Hn/4lBcCrz2NHDWqf8NBk/aYpWlak1/0EKQOio9TCqM2DYGN0N2b0kr5zz3ZdCb7OUNpmMu+pOXe03jzQS3QQdfoxGI299PIOefcUp1Y8ePsj9t1wrnMd36dGLKVMvF7bz/dcz/FoL6Nazr1bGojOB06KTSAEIDXbcD8MrsfGJpLfXjvMHbr9/i+X0hbnKigq+1zjjf+aND2Cy6EsM0lQX/sCdBejfX3xHRnvxCcyFc3/k+6/Ev/P7nvg/7BHq+Rj2781i7eoVdeonuP1ABg8THk+2UeO9kwIQGkYhyOzbe8Aw3fHlrVZzLce/X+fO5uSJXNVrElu2pf8k7ViCAMkRRiKb6Lafh/jEJN79/BvN1fxnH72fwoJ81fKU1BZcddNtwja+//q/deqjh6EjxWcRcKeV/wMpAKFhoqiwV/+huhvyNvxfMFc8l5xw7T269vwB2kRJd1+A9Hbt+dvz/xTWOXbksOauwJU33Sb0ENywZiV7s3fXqY8A7Tp20ZoGTKTaipEUgNCgOvyPiIwiLbOTrkYUlFrBPg8d2CcMHBmblMqgs/+iq/1Ii9IkV/7VuOjyqzl3qtjrbvq/3iBr107V8pTUFpx9gbprt8vlYv7P39e5j4qi0LufV58fD6lAL89f5NMNPm2A9mqFnbr1waAzs4zZYqq1L7/glx+EC0mjLrsFs9X7eYFaHY1qunN/NR5/4RUSktRjJDgqK3nv1ReFbVxz213C8uWL5vu1GKgjT+Ef8wQpAMFnmKiwS89+uhuy1XD8cLlcLJqn7vOvGAwMnCzcfPizrgLNIuTrUZPYuHjue/xpYZ2vZ3zKwf17Vcs7d+vBkJHquzy5x46wY6sw/LeQ7r37a4WL/2OOKZ9w8BFG1mzfpYfuhmqu/m/ZuE6YUrrjgJHEecnZ540Em6HRxPQPNBdefjW9+g9ULXdUVvLhW+JDPlMuEU8lli7Sl6PBG3Z7BJkdhNPIoZxaB5ACEHxUV/jiE5OJ1wjB5UEBLObTBWDVikXCawaerS+oCECqPOuvisFg4P4nnhHW+e9HHwj9MCacNQWrTX0qtmzhPFwucfIREZ3EcQeTOJVyTgpAcLHjPpnllfT2nXU3ZDabam0Vblr/u2p9a0Qkvceeq6ttRYFkufgnZOCwkfQZqD7XLi0p5qfv1NOsRUXHMGy0ahAoTp7IZffObXXuX6eumiPJgSAFINh0AVRX1tLb+SYA1SksyCd7t/qpvy5Dx2PR6VocZ5XDfz3c9Nf7heXffvGZsHzy+RcJy7duXO9znzx00p5K9gApAMGml6iwdZo4Dl91aib82LxxrXDI2LG/voNF4J7/S7QZM/Es0tupbuiwcukiDh9UTy0+9syzMAoSt2zbXHcBiImNIylZmBukO0gBCDbd1QoURaF5qzTdDZmMpz+6TetWC+t3GCA8KXYacRb5WuhBURTOuUjdp6KqqorZM/+nWh4ZFU2X7upz9S2b1vm1Hdg2vZ2ouBdIAQg2qmP8+MRkoZ94Tcw1gn9sWr9GtW5scnNS07WzCYF7/h9rlcN/vZx78V+EbttLF8wTXt9vsPqucEF+HocO7Ktz39qkC0eUyUCiFIDgkq5WkKrjWK4Hg0E57WhpeXkZB/Zlq9bvOED/8D/KrMg4/z7QJj2DHoLTgquXL8VRWala3n+I0C2EbVs21L1vbdXTt58iXQpA8DDg9gL0iob/9mmYangK7svZIwxNld5jgO62Y63ylfCVkePOUC0rKS5i0zr10VnfgUOEI4h92Xvq3K+UVHFKNyBNPu3g0RxB9N+EpBTdDRlrCMDeLPHhEb3Df4BIk3wlfGXgMPH6yoolC1XLEpNTaNFKPR7j4UMH6twvKQDhhTDqZkKSrmzOABhrDNEPCVaaAZqlqa9U1ySi6QX+8Zte/QYKnXq0tvPapKsP1Y/4IQDxCYlauQnaSAEIHkmiwrj4RN0NGQ2njwBE7r8WewSxKZpfgj+IMMpXwlesNhtde6pnU9LKxSgUgMMH6rwToCgKCYlCz9Ik+bSDh1AAomJidTdUM7TcMYEANEvroDu4CICtiQf/qCsZguw82bt3CY1YtFpfVlpKft6JOvcrRvxeJcnznsFDKACRUTGi4tOoGVwy/6T6C5Lkg2+B1aggHQDrRlqm+jSrpLiIY0cOqc7J254aARiNRhKSkomOiSUqKoa4+ARiYuOpqqq7L0C0WAASpQAEj3i1AoPRqDsCMIBBOV0ACgsLVOvafRAWuf5Xd9IEHoEA+3NyVAVg1BmT+G3nARKSklEUhSMHD3N4X93n/tWJjokTFUsBCCKqMQCtVptPw3Sl2iKg0+kU5qmzRYrj2FVHCkDdSW0uPmZdJBBpm82Ozfbn61HTzdsfbHbV1w5AOn0HEdXlWI3gDUIqKsqF80tbhGpm6Fp4Sywq0UdElPj3rJVMtDpKABdizWbhLoD0+ggiqk9CdCDEG9VHCyIvMwCrTyMAKQB1JVJDAIqLi3W3FUghNonThUkBCCKBEwD+/OI7HBoC4MP5ArkAWHe0QoYXFxbqbktRAjkCkAIQLjjVCqqcqkVeqT7g13pZqpwO/e3WfbG5yaM1EvNJ5JXAPQiRizjglAIQPErVCioqxHnma1J9zq8xxKPMh7mnUypAnSkuEv+eozSmCNVx+bHtVxMNYSqXAhA8VAXA16yw1V8PjSEe5cX6h57Ouoega/JoLfJFRutfi9H4avtEZaXw3aqQAhA8BAIgXsmvSfXAPxaLVTi8LC/Vv/jkkCOAOiNKCQbuhC96cTp8mxKKqNQYAUg/gOChKgAulwuHo1Jry+a0+h4URSE6OoY8FW9A36YAuqtKarAvJ1tYHhefoH5tdha/zJlFQmISSSnNUFwKleUOYmLjhSnF9VBcJBwBFkkBCB6qAgBQUVamWwBOnwS4vb3UBKDopHqS0JpUBu7D0+TQOvDTNkPd33/lssU88/C9tf5dURRiYuN4+uV3hUeGRWiMTHLlFCB4HBEV+nLgw1ljsp6QqH7M4Ei2+MWsTmWVi0o5DKgToojMKanNhduEOXu8X+tyucjPO0m84PlqIcpNgBSAoHJQVJh34pjuhpw1FolSmjVXrXv8wF4cPuwylDikANSFHVs2qpa1zRAG52RvlnrUn7j4ROw+nBOpiYYAHJcCEDyEpztOntA/VK85AkgWCEBVlZNj+7N0ty0FwHeOHTkszAic0V4ckUkU0Sm1hb5Ubt6orKxUnRqe4qgUgOAhDNtz8rj+EYCjhgC0bJMmrH8kS/80oKRSCoCv/LZkoXAXp/cA9QxCLpdLOH1Ibd6qzv06duSQVnqxLCkAwaMUOKlWmOfDCKDmPnGaOP47B3dv1d12kRwB+MzKpeKcjIMEMQN3bd8qHKb7MwI4elg46wTIlgIQXFSDvOcKovrUxD0F+NNQmzVvgdWmfuxz5+olutvOK5PeQL5QVVXFvDmzVcubt2xNq7ZpquWrlomfTUZ7YZZfIVqxIpECEHQ2qxUc2Jel2xnIheu0aYCiGOjQqatq/T3rVlBZXqar7XKni1KHFAG9LFs4Xxi4c/CI0cLrVy9XFwBFUejYWTWZlCZ7s4XRop1IAQg6qkvF5WWlPo0CKmts2nfr2Ve9bnkZWRtX6W47r0xOA/Ty3RefC8vHnDlZWL56+VLVsjZpGURF64/oVBO17cVT7ADKpAAEF/W9ImB/jji+f3UqHaef8uveq5+w/o7f1GPT1ySvQo4A9FBYkM9Ps9RTgEfHxDJ6wiTV8pw9uzm4f69qeacu6nkDtXC5XOzNESYV2QAyN2CwEeZ52r9XfxaYysrTBaBdh87C8E9bV8zX3fZxuQ6gi0/ef0foajvxnPOE+QJ++Fo9cShAp66aKb5VObAvm9IS4TmQjSAFINjsA1SXfH0ZAVTUGAEYTSa6dFPPPp69cTXH9unzByipdFEotwOFlJeV8fF7bwnrnHOxeuZggNkzv1AtUxSFrj371KlvAFs3a+YUXA9SAIKNC1irVrhnxxacOgN4VFW5ajkEde+tnqTS5XKx8nvxfLU6R4rlwQARn09/n2NHDquWp2W2E6YM2719G9s2q88IO3TqRqIP6eJqsl2cVNQFLAcpAKFAdTJeXlZKzu7tuhuqqDENGDx8jDBC0MrZ/9W903BICoAqeSdP8NZLzwrr3HjX/cKTfLO/Vv/6AwwZObZOffOwdeM6UfE24DhIAQgFC0SF2zcLH9xplNUIJJKckkrXHuopqo7ty2LP+t90tV3qcFFYIacB3njxiYc5eVzdcatZ85acd8nlquVOh4MvP/lItVxRDAwZXncBOHr4oFZS0cWe/5ACEHxWIDgavG2TBoN1zgAAHAtJREFU6gyhFuUVtYM9jBqnvuoMsHTmdN3tHyzSH0+wqbB+9Uq+/GS6sM51t/9VmJTzh2++FK/+d+1OQpIwp5+Q31cu06ryh/OBFIDgU86p+Zc3cvbs0Fq9/QOnswpHjYCig4aPxmpVX3leNfsLThxSf/mqc6C4CkcA49M1dIqLCrn3pquEIbuat2zNpdfcIGxn2luvCsuHjhxXp/55WLtK9fUC9/z/F89fpACEhl/VCqqcTrZu/F13Q2Xlp08D7PYIBg5VX3xyOiqZO/01XW07qlwcKJZbgh4ev/cO4cEdgEef+wd2QSj2lUsXsXGt+vO12yMYOfbMOvexvKyUTeuF789a4A+PMykAoUHdeRz4fbl+p52yitrD9PGTpgivWfb1x+Tnqq9gV2dvgUOGCwdmfPQB3874VFhn2OhxTDznfGGdd199SVg+duI5PsUPrMmqFUsoF7t9z6n+FykAoWEtoLrpv2XDat2ppCrKK2plj+3SvTedu6l7kVWWlzHvozd0tV/qcHGsrGnvCCyZP5cn779TWMdssfDYC+Kh/ZJff2Hh3B9Vyw0GA5OnXFynPnpYtmieVpUfTrunX3eT+MOXagVOh4N1q/Sd4HMBpWW1I/6cf8nVwusWznif3P3Zuu6x+2TTHQVsXPs7t15xsWbo9vsef5rMDh1Vy51OJ889er+wjQFDRqpmENZDSXERa1YJFwD3UWP9SQpA6PhKVOjLNKDEiwD06T+YTMFR0sryUr54/j5d7RdWujjYBP0CnE4nd19/ueZobPQZk7j2tr8K63zx8TS2b9kkrHP2+Zf63MfqLF7ws5ZQfUGNiLJSAELHaiBbrXDXto2cyD2qq6GKSket3QCACy69WnjdpsU/sX7+97rusSvP0eTChhuNRl7/8HNhSO/UFq148e0PhOnd8/NO8uqzTwrv1W/gML98/wHmzflOq0qtwwdSAEKHC7ciey90uVj8iz7jBCgtra38A4aMIC2jvfC6/734ABWlJZrtlztd7C1oen4BXXr0YtpXs4mJjatVZrFaeXXaJ5pRe5+8706OH1MXc6PRyBXX3+5XP7N27WD3zm2iKruAlTX/UQpAaHmfmkH+q7F84U+UlwnTCfxBSVntlV9FMXD9bfcJv04nDu3j2zf+rusee/KdlDbBkGE9+vTjk1lzTxsJGAwGXn53Ov0GDRVeO3vmF8z68r/COuMnTaGVRlxHLebMUl1S8vABXt41KQChZRfVnDJqUlJcxMolmqu6gDtQqLfFwM7dejJSwztwwWfvsG7+LM17OF0uNh8XZ8FtrHTp0YuPv/3pDxF45Nl/cOaUC4XXHD18kCfuvUNYx26P4KLLrvOrb3knT7BovvruAuAAvPoeSwEIPe+IChf8/K3uAzxFJd7j/195/e1ECRJTuFwuPnniVl0egifKqthX2PQWBMEtAh/O/IH7Hn+aq28WG7bT6eSBW6/XCsvNxVdcL1xj0MPsb2ZoLf7NoprzT3WkAISeWQhChh87fJBNa2tN3bxSUVlZ64QgQGxcPH+55hbhtSUFebx/75U4xNlkAdhx0tEkpwIA3Xv35eZ7HtSs9+ITD7Nk/lxhnY6du3PWeZf41Z+SkmJ+nq0elegUb6oVSAEIPQ7cawGq/DDzE92jgOIS715gEyZPoWMXcYDJnM2/8+VLD2new+lysSm3ssn6Bmjxv0+m88GbrwjrWG127nzgCb+Tf87+egZFhQWiKmsA1XBQRr/uLgkUm4BbAKu3wsL8k6Q0b0mL1mmaDTkcTux2GwbD6Qt/iqLQs+9AFv4yh4py9VRhOZvXYDSZaddXvLhV5nRRWeUi2S5foeqsXrGUu675C04v27LVue6We+jVd6Bf9youKuSV5x6jQjz8vwf3++UV+fTCg1IgDlC1ugN7sxg2dpKuL4bLBXZr7eOoEZFRtGydxtKFquuOAOxYtYi45Oa06aIeYgygoMKFzaQQY5EDSYDtWzZx3YVnU1woTMlNzz4DuPaWu4W7M3r48rMPWb9GOD3Mxv1hUT3RJQUgfFgH3Ap4PUheUlxETFwCbTPEeeYAKh1ObFYzRmNtw2zZui0lJcXs2Cr2Stu8+GdaduhGarr4frllVSTYDNhN/r3MDZ0dWzdzxTkThIFCABKTUnj06X8KTwzqIffYEV574UmtEHL343Y4U0UKQPhQAiQCQ9Qq7M/exdAxZ2IymTUbq3K6iLB7nVHQvWc/1q35jRO56vkIXS4XGxbMpkVmF00ROF5aRYrdiNnYNEVgx9bNXH72eOHvE8BqtfH486/TomUbv+/5r9eeJ2u3MOfjbuAGBF9/kAIQbmwAbgO8Wnh5eRmVFeV07qGeBMSDw+nEajFjMtZ+xAaDgd79B7N88XxKBMFHqpwO1s79htjkVOF0wOmCoyVVpEQYMRualghs3bSBq6ZM1DR+RVG468G/00MQuFX/Pdfx8fuapznvRhCA1oMUgPCiCIgAhqtV2Ju1k849+hEXn6jZmMNZRaTKKCAiIpJ+A4exdOEvlHvxIvTgcrnYuHAOlRVldBqknubK4YJjpVU0izRiaiIisHDuj9ww9VzNvX6Aiy+/njPPETsO6cHhqOS5x+8nP081zyy4F/1uQ+Bl6kEKQPixArgCiPVW6HK5yNm9ncGjztBcEHRWVWE0GrGYTV7Lo2Ni6dytF0t+/VkzHPnutSsoOH6UzoPHYPAyqgBwVEFuaRXN7I1fBN5//WUeuv0GoXh6GDVuEtfc/Fe/F/3AvfCn48z/Fbi9TDWRAhB+VAJHgAvUKhQW5GGx2sjsoJ4Q1EN5RSURdisGlZcvMTmF9MwOLFs8D5cg1h3A3i1r2bpsHp0GjSYipvbhGIDKKjhaWkWS3YilEa4JlJWV8uidN/P+6y/r8s0YMXYit9/3mN/7/QD792bz2gtPCGMSAt8Cz+htUwpAeLIZGAO0VauQtXMLvQcMJzJKO3mk01mF3eZ9KgDuQJbNW7Ri1YrFmiKQd/QQK777lGZp7UlN9x4Aw1EFh4uriLM2rt2BzevXcu2Fk1n6q77zGcNHn8Gd9/vv7APuIDHPPn4vuceOiKqVA1MA7TnJKaQAhC+rgBtR8dascjrJ2rmVQSPGa75gDqcTs9mE2aT+uNukZ5LZvhMrly/C6RBPBxwV5az5eSbFecdp12coJnPtncsqFxwucWI3KUQ3cD8Bp9PJu6+8yL03XU3uEaEB/sGwUeO568EnA2L8AJ99+I6eof9TwDe+tCsFIHxJBy5DxS8AoCDvBCaTmXadumk25nA4iYxQDxcO7pFA9179WLlsodBb0EP2pt9ZOfu/JDRvTfOM2tGHXLh3BxxVLhJsRgIwBQ4627ds4rYrL2bmZx9TpeHd52HC5PO45e5HMKqslfjKpvW/86/XXkBjTW8TcCXg00ktKQDhyUDgJ0D9CN8puvUeQHq7zsI6iqKQEBft1TGoJonJKfQbNJzVvy3RFZi0rKiANT/PZNeaZaR170eUl92J/AoXR0ucxNsazrpA3onjvPT3R3n4jps4uE9fHgWDwcBl197K5dfeGrAv/4njuTz18F2UiYO2VOEe+uf42r4UgPDDY/xedwGqM+XS6xhzpjgMtaIoJMXHqO4EeCMmNo4hI8awfetGjusMS3b8QA7Lvv6Y4rwTtOzQFVvk6dpVUQUHi6qwGsPbdbi8rIwP3nyF26+cyqpl2msiHiIio3jgiRcYPX5ywPrinvffw/692VpVXwKm1+UeDUOOmw4hN/7qOB0OPpn2NrNmfq77NCKAyWJl8LmXM+Hae0hsUdvrLcFmoHOCmUhz+Lx+eSeO8+kH7/Lxe28Jw3d5o3nL1jz05Iu0apMe0D79+62XmfNdrTB+NVkDDAa0z3F7IXyegKQvMBeI16p49kVXMf5scfx4f42/OqtXLOGNfzyldey0FkaTmX5nXsTQ868is/fg0/bBFQVaRxtpH2fCGMLFgb1Ze/jwndf48pOPdKdkq874SVO4+sa7sNntAe3Xz7O/5t3XX9CqVoL7vREGAxQhBSA8CKsvvzdyjx7mlecfZ9tmYd55VRJbtmXgWZcy8KxLSW6T8ce/200K7eNMNIs0Bu1lPHr4EHO++YrvZ85g3arffBrdeIiLT+CWux+h38BhAe/fquWLefGpB7X2+wGuA6b5cy8pAKEn7I3fg8tVxS9zvuOTaW/7PBqoTlq3vnQaPIaOA0aS0XMgZqsNu0khPdZEy8jA7xZUVVWxffNGflu6iHk/zGLl0kWa5/VFDBgykpvveojYOM3Bms/s2LqJJx+6Q08w2PdxbxP7hRSA0BK2w34RBfl5/OeDt/j15+/r9PWsjtlqI73HANr3G0aLzM60yezAoJ6daBMfQV02DKqqqji4fy/Zu3e5jX7JIlYvX0JBfp5f/QRo1SaNq268iz79B/vdljdysnbz+P236BHXlcAI3I4/fiEFIHQ0mC+/Gts2b+Dfb/+DrF3CY6k+oxgMJLVoS6uMdqQ2SyEhJoqo6BiiY2KJiIzCbLFQkJ9HSXERJcXFlJYUc+zIEfZm7SYna7cuHwZfiI6JZeoV1zNh8vkB29uvycH9Ofzt3pu1DvkAHAYG4E7z5TdSAEJDgzd+Dy6Xi1UrFvPVZ9PZtWNL0O9fn9jtEUyYfB7nX3q1MKqyv+zfm83fH7qdExrBRIBiYBQaQT58QQpA8GmQw349bN20nm+++A+rf9OX2DRciYtPYMLk85k85WKiorXPWvhD1q4dPPXInXqmKFW4D4j55OqrhRSA4NJovvwitm5ax9wfvmXF0gW6MxuFA2kZ7TnrvEsYPmaCrqhL/rJ10zqee+J+iovEMQRPcTvwVqD7IAUgeDTaL78aFeXlrP5tCQt/mcPa1cv9WnmvL5JSUhk4ZASDh4+lc7eeQbvv8sXzef2lv+tdr3gEeK4++iEFIDg0iS+/iOO5R1m2cB5rVi1j66Z1VFaGJsWYoii0apNOr34DGTpyPO07dgl6H2b+9yM+m/4vvTsoz+EWgHpBCkD90+SNvyblZaVs2bSebZvXs3XTevbs3EapjgzFdcFgMJCW0Z4u3XvTpXsvOnfr5TXTbzAoLyvl7VefY8mvP+u95J/AvfXYJSkA9UyTG/bXBZfLxdHDB8nJ2sWB/Xs5dvgQR44c5ETuMQoL8iksyMfh8D5iiIqKxmqzY7XZiE9IokXL1qS2aEXzlq1JbdGaFi1bY7aonqgOGocP7ufFpx4kJ2u33kteALTTNPmJFID6I+y//LNmfk5FeTlTLr6i3va3A0VFeTkVp/IWOh0ObDYbVltg/e/riyUL5vLu6y/oOl6N+9D/g7hP+NU7UgDqh/A3/q8+Z/p7rwHQoXM37rjvcVq08j9eveRPSkqK+eCtl1nwyw96L6kEbsZP/35fCG/Zb5g0KOMH9wLdvJ++w2gw0qFT14AFs2jKbFy7imcfv5fNG9bovSQfd1CPr+qvV7WRI4DA0heYRwMy/pq0TW/HLXc/EpLV8cZAUWEB0997jQVzf/DlnEQOcDawsf565h0pAIElBbcACIP0havx/3lvA5POvZBLr74Zuz0iYPdvzLhcVcz/6Xs+/fAdPf781ZkL/AXQ9AOuD6QABJ5k3CLQ3VthqFb7Z838nOnvaht/dWJi4zjnwss467xLMJvr3zOuobJz+xamvfNPzYSrNXABLwKP4mMgz0AiBUBM81N/HvLloouuvrXXkrnf/37owN7TJtPh/uVXo1nzllx61Y0MGzUeRZHrAx6y9+xkxsfvu/Mp+HYs+hhwLfB9/fRMP1IA1GkGzAdMwGjgoJ6LPp61pE1JYdGW4yeOR775/CMc2u8O1NpQjb866ZkdmHrFDfQbNLRJC8He7N3879NpLF/8Ky6XvqCh1fgJuBr3sd6QIwXAOx7j96yE7UCHCHiMv8LhjAR3Cq83n3+EgcPHNXjjr07zlq2ZPOViRo8/K+Cx8MKZjetW892Xn7J29Yq6BEIpxu3S+wY6knYGCykAtalp/B6EIlDT+D1UVlZg9pI5pzohNv5iwEYdtoQjo6IZd+a5nHnOhSSnpPp6eYOgpLiIxQt+Zu7sb8jaXefAJz/h3t/PDljHAoQUgNNRM34PXkVAzfj1EGLjzwfOwB1a6jXcYaZ8RlEMdOnek+Gjz2Dw8DH1foa+vqmqqmLzhjUsnDeHZQvnUV6unQFYhSPAfcAngetdYJEC8Cdaxu/hNBFoBMb/m6c7wFTcLqit6np/k8lM7/6DGD76DHr3G0REZFRdmwoqTqeTbZs3sHzxfJYvnk/eyeP+NFcBvIo7S2/do6cGASkAbvQav4cdwOiPZy0xNRLjr04k8DBwN+CXE4DBYKB9x6706NOfnn0G0KFTN4ym8DnIdOTQATau+521q5ezYe0qvb76IlzA17h9+Xf53cEgIAXAd+MHwGg07nn69Y9SI6PjfTaSMDb+6jTDPXy9Bbco+I3NbqdT156kZ7Qno30n0jLa07xlq6DsKBQVFZKzZxfZu3ewbcsGtm1erycGny/MBp4Afg9ko/VNUxeAOhm/h5TUltzx8PPExifovqaBGH91knELwa1AwMfzNrudtuntaN6iNYnJKe6fpBSSU5oTn5CIzWbHYrVqtlNUWEBBfh6FhfmcyD3G0cMHOXrkEEcOHWBfTha5x/Sl9fYRF27DfwZYUR83qG+asgD4ZfwefBGBBmj81UnCLQI34McaQV2x2e2YjCYiTy0wuqqq/hiyl5QU68miE0jKcS/svQxsDeaNA01TFYCAGL8HvSJgs1pIjAtceOkgGn91TMBZuKcG44Cm5BG0E/gAdybeehlSBJumKADNgV+BjloVW2d2BmDfbm2RT2neijsffo6YOLEIRNisxMVG+f2LD5Hx16QdcD3u3YO0emg/HCgEvsV9Rn8BYeTEEwiamgDo/vK3Su/IgJFngaKwevEc9u7arNm43pGAvyIQJsZfk37Ahad+MoNwv/qkGLef/gxgDlBnR4BwpykJgM/Gr5wKjOFyucJGBMLU+GvSG5iMO4vNEKAh+AtvBn489bOYAOTdawg0FQGos/F7CAcRaCDGXxMr7lx2o4GRQB8gNGF5/8QBrAeWAEtP/enTic/GQlMQAL+N30MoRaCBGr8abXDHS+gO9MD9bFoD+vdT9VGG2/8+G/cXfuOpn800kS+8Fo1dAAJm/B5skVGsmPcdu7do+3sESgQamfGLsAMtgRa4BaEZYMYdYs2AO7y6AffhJU8igXzcwTSPV/vJBfai8wh3U6YxC0DAjd8eFYPZYsPlqmLxnC8CKgJ2m4X42OhaD8SHSD75wEQaqEOKJDQ01qjA9Wb84HboadOuC4X5Jzl5TDx1LC4qZPO6lfTsN1R4dt7hcOJwOrHZrH+IQEV5Oe+/+ZKeGHMN/csvCRGNUQDq1fg9BEMEjCYTQ0aMZd3q5SIR8Hz5pfFLfKaxCUBQjN9DMETAarMxePhYVi1bWFpYWFAzMqcc9kv8ojEJQFCN30OQRGDNoUMHxu/ctnkU7v9PkMYvCQCNRQBCYvwe6lUE7Ja1VS7X+Gf/ds9+4EvcRm9DGr8kADQGAQip8XuoDxFQXK6SskrH8KvOHeWJIFuCWwS+BVb51EGJxAsNXQDCwvg9BFIETEZTidFo7nHT1HHZNYpKaKJea5LA05AFIKyM30MgRMBt/KYeN10yVncyeYmkLjRUAQhL4/fgjwhI45cEk4YoAGFt/B7qIgJ9Bo4ojYyKkcYvCRoNzRW4QRh/dXxxGzYazVlOZ+UwpA+7JEg0pBFAgzN+8G0k4HJVxePOEz8TdyQaiaReaSgC0CCN34MvIgAkIkVAEiQaggAE3fitVjPXXXwmOQeOUlIWmGPjUgQk4Ui4C0DQjd9iNvPXa8+jV9d29OnennVbdlFSKkVA0jgJZwEIjfFfdx6dMtsA7kAdfbpJEZA0XsJVAEJu/B6kCEgaM+GY1CFsjN9DYlwMD9w8leTEWK0u+UijCjEvaYCEmwCEZLV/1OAeqsbvITEuhvMmDNPqli7cvgEz2L1ljZ7qp6Ujl0gCSThNAUK21bdn7yGiIyNIb52qWmdn9gHe/fR7HE6nZnsipPFLwolwEYCQ7/Nv3L5HVQR2Zh/glX9/RVl5he72vCGNXxJuhIMABN34FRUH6I3b9xAXE0Vaq2Z//NuOrP288sFXlJdXanVPiDR+STgSagEIyYLf3dddQJXLxf5DubXKN2zd/cdIYGf2AV79YKY0fkmjJZQCEHwPP4uZe66/gE7t2tC7azsOHTvBwSPHa9XbuH0PZWUVfD7rV2n8kkZNqAQgZFt9HTNbA+69+L7dOnD0RJ7XkcDunIM4nVVa3RMijV8S7oRCAMJmn19RFHp3ba8qAv4gjV/SEAi2AISN8XuoDxGQxi9pKATTESgkW30ZbVJpl9ZSWMdgUBgxoLvq7oAvSOOXNCSCNQII2T5/7skCsvcfoX+PjhhU2tyZfYDXpn2NwyGdfCRNi2AIQMidfI7m5pF9wLsISCcfSVOmvgUg5MbvwZsISOOXNHXqUwDCxvg9VBeB3XsPSeOXNHnqKypw2Bl/dTpmtCb7wGHp5CNp8tSHAIS18QcKafySxkCgBUAaf22k8UvClkAKgDT+2kjjl4Q1gRIAafy1kcYvCXsCIQDS+GsjjV/SIPBXAKTx10Yav6TB4I8ASOOvjTR+SYOirgIgjb820vglDY66CIA0/tpI45c0SHwVAGn8tZHGL2mw+CIA0vhrI41f0qDRKwDS+GsjjV/S4NEjANL4ayONX9Io0BIAafy1kcYvaTSIBEAaf22k8UsaFWoCII2/NtL4JY0ObwIgjb820vgljZKaAiCNvzbS+CWNluoCII2/NtL4JY0ajwBI46+NNH5Jo0dBGr83pPFLmgQKsA3oqFWxdWZn+o+YjKKRPytcjX/RD/9lz9a1eqpvx238h+q3VxJJ6FEAl1Yl+eWXSBonmslB9Rq/yWSRxi+RNDBMosLU1hkMGHW25rAfdAwjgowc9ksk2gg/6/FJqbqMP9zwfPl1Gv8OYAzS+CVNEM0pQENDDvslEv00KgGQxi+R+EajEQBp/BKJ7zQKAZDGL5HUjQYvANL4JZK606AFQBq/ROIfDVYApPFLJP7TIAVAGr9EEhiEnoBlJcXB6odupIefRBI4hCOArO3r2b5+RbD6oon08JNIAosReFJU4eihvRgNRpJSW4lbclVhMlsxaBwaqity2C+RBB4jcA9gFVU6emgvZrOVxJQWwsYcFWX1IgJy2C+R1A9GYC5wEWAXVTxyIFvXSCDQIiCH/RJJ/WHEbSy/oEME9E4HAiUCctgvkdQvxlN/hp0ISOOXSOofY7X/DhsRkMYvkQQHY42/h1wEpPFLJMGjpgBAvYmABYPB2+3+RBq/RBJc1CyyHkSgXCgC0vglkuAj+iQHTQSk8UskoUE8Jg+CCEjjl0hCh5YAQD2KgKIo0vglkhDiS8zvQcCPQKxWxczOvbFHRotvrCjkHT/Kvj1b9dxbuvdKJGFAX+AE7jwgwfrZDogPIUgkkqARTBGQxi+RhCHBEAFp/BJJGFOfIiCNXyJpANSHCEjjl0gaEIEUAWn8EkkDJBAiII1fIgky/w+R5ahL6ajSHgAAAABJRU5ErkJggg==;" vertex="1" parent="xjHob3qZV44p0iBS6s6t-1">
          <mxGeometry x="373.3333333333333" y="84.5" width="20.69565217391304" height="20.69565217391304" as="geometry" />
        </mxCell>
        <mxCell id="xjHob3qZV44p0iBS6s6t-34" value="Comprar ganho tela quarto&lt;div&gt;&lt;br&gt;&lt;/div&gt;&lt;div&gt;Comprar bola fisioterapia pequena&lt;/div&gt;&lt;div&gt;&lt;br&gt;&lt;/div&gt;&lt;div&gt;Consertar amplificador&lt;/div&gt;&lt;div&gt;&lt;br&gt;&lt;/div&gt;&lt;div&gt;Pendurar guitarra parede&lt;/div&gt;" style="text;html=1;align=left;verticalAlign=top;whiteSpace=wrap;rounded=0;fontSize=16;glass=0;" vertex="1" parent="xjHob3qZV44p0iBS6s6t-1">
          <mxGeometry x="9.328421052631576" y="169" width="388.56631578947366" height="208" as="geometry" />
        </mxCell>
        <mxCell id="xjHob3qZV44p0iBS6s6t-39" value="" style="ellipse;whiteSpace=wrap;html=1;resizable=0;movable=0;" vertex="1" parent="xjHob3qZV44p0iBS6s6t-1">
          <mxGeometry x="10.000000000000004" y="440" width="66.91" height="60" as="geometry" />
        </mxCell>
        <mxCell id="xjHob3qZV44p0iBS6s6t-40" value="" style="shape=flexArrow;endArrow=classic;html=1;rounded=0;fillColor=#050505;fillStyle=solid;movable=0;" edge="1" parent="xjHob3qZV44p0iBS6s6t-1">
          <mxGeometry width="50" height="50" relative="1" as="geometry">
            <mxPoint x="45.09749999999998" y="490" as="sourcePoint" />
            <mxPoint x="45.09749999999998" y="450" as="targetPoint" />
          </mxGeometry>
        </mxCell>
        <mxCell id="xjHob3qZV44p0iBS6s6t-41" value="" style="ellipse;whiteSpace=wrap;html=1;resizable=0;movable=0;" vertex="1" parent="xjHob3qZV44p0iBS6s6t-1">
          <mxGeometry x="86.18" y="440" width="66.91" height="60" as="geometry" />
        </mxCell>
        <mxCell id="xjHob3qZV44p0iBS6s6t-43" value="" style="ellipse;whiteSpace=wrap;html=1;resizable=0;movable=0;" vertex="1" parent="xjHob3qZV44p0iBS6s6t-1">
          <mxGeometry x="166.55" y="440" width="66.91" height="60" as="geometry" />
        </mxCell>
        <mxCell id="xjHob3qZV44p0iBS6s6t-44" value="" style="shape=flexArrow;endArrow=none;html=1;rounded=0;fillColor=#050505;fillStyle=solid;startArrow=block;startFill=0;endFill=0;" edge="1" parent="xjHob3qZV44p0iBS6s6t-1">
          <mxGeometry width="50" height="50" relative="1" as="geometry">
            <mxPoint x="119.08649999999997" y="490" as="sourcePoint" />
            <mxPoint x="119.08649999999997" y="450" as="targetPoint" />
          </mxGeometry>
        </mxCell>
        <mxCell id="xjHob3qZV44p0iBS6s6t-45" value="" style="ellipse;whiteSpace=wrap;html=1;resizable=0;movable=0;" vertex="1" parent="xjHob3qZV44p0iBS6s6t-1">
          <mxGeometry x="250" y="440" width="66.91" height="60" as="geometry" />
        </mxCell>
        <mxCell id="xjHob3qZV44p0iBS6s6t-46" value="" style="ellipse;whiteSpace=wrap;html=1;resizable=0;movable=0;" vertex="1" parent="xjHob3qZV44p0iBS6s6t-1">
          <mxGeometry x="331.76" y="440" width="66.91" height="60" as="geometry" />
        </mxCell>
        <mxCell id="xjHob3qZV44p0iBS6s6t-47" value="" style="shape=image;verticalLabelPosition=bottom;labelBackgroundColor=default;verticalAlign=top;aspect=fixed;imageAspect=0;image=data:image/png,iVBORw0KGgoAAAANSUhEUgAAAOEAAADhCAMAAAAJbSJIAAAAeFBMVEX///8AAAD09PTY2Nh6enq8vLzCwsKGhoZTU1MuLi4dHR1/f3+4uLinp6exsbGdnZ0JCQk2Njbr6+vR0dHx8fHi4uIXFxcmJibIyMiNjY1SUlJjY2Pe3t48PDxdXV2Xl5dGRkZubm6ioqJDQ0MhISExMTESEhJqamoyI1GKAAAGhUlEQVR4nO2d65qyLBSGR7NSyzI3ZTtT663zP8Nv5muSZWMhguLM9dw/S2XdCgqI8PHRHUFhr9YGj/XKLoIOo+iMYJxx5RjZ+NdJTlIBvy/Sie6QhTA9Qb8vPFN32M0xty0EDWP7exRPfitD/6Q78KYs2gl+Ki50h96McNVS0DBWoe7gm9CyEN75FUVxJCFoGCPd4TegoAFvUmv2Hivd0B0K3eHzMc8k3jw5ROZ7okOSkz3Ow8+mES1VzapiAS25UcfxyUOK4S5uuE+8+00FkdTXmj/dFmwnr8PYeETB/GSl9ntShwXbvC49YTs53BSs0zzoIi/HnmhrYZ00PnjCb0ZWSb2mJaApgSfS2uve8LNF6SltUY5uwhF0bWgYN4U3pYn4BezB0MiUNZrDDT+1GlwBQ7dVChtFFfX42Cp549g8/bBtEkruN6boPfRB3vxWEOQt00hVVPK8VmXEMC5jgUTGl3aJrBVUEOJ9u7Q3hcjpNYt2Zd3Yyz8z5tUuCWfVCHsqep+bTO1mh3Yq8fhzWcFKi31dJGEzDuLlwzw0PHZS0HIj3StwINV+9yB5MFUcyMNlJxtUSM7XcLqJQpKvZKNK2LFyJcGpIWdhNa9X1EPaNTpbbs+QVqhs1W08xExayaYij9065uxQQ+pfIH0lso8LGGqCGMq+64ChJhQaknup7INHJeQxLVsOyaGG9P7ypO7EE8NMQWSqOKszpH00w3kvtGRBXWQrIrQBvF4qCU+e5ZUFlUp31dDXgf7OWnq6WVo72iiXP+tte1B6wpWtln42vWe6Jd5iKehsm/zTbfEGR0m3t8zYiq7ZqhD8iHLdHi+5KXqPGLR6MdMDZ2Uv2II2L9e656bwDaLUOKeuUDx+Kr4N67l4ual+zf1ZQ52mR8e9+rq5us4xnXbULRaOF8VSN8ViPKRePwAAADVwxsP2QYdyycJbbqe62RbeIulCMy6slsN6OuBoFaorbWax46fbKzuh0Sxcgl3bz2C6w7cVNp7kPqHoDmXvioYqaBiKhr/E7b9j6pqVmrGJw+zCuHNTcbtZtBvd2g+ugu/52o5N7Im9fD6dD+85QbmqHZvoW51UlwQjSix60qXfTB9Ib7AzlP6RkIwxlR6bmJDzNZyhCmS0ncqxiamS4NRgqzvvf39sIhkxNJRS+IXCsYnky8CBjomSfVzAUBMwFACGmoChADDURO+GtV3tL34U2PR1gv0aRvN0s8qf/w2t1SadP43oiU/ZJTs9Ncv/3996rhOO8pr92b99Gj6+cK32mHwP2rQqIX7PPlSdSSiy7ptWx+d+p/vqS9teDR9jF9e0kl82uqbkx+Dx4uNI454+NqXNoMnjk7lZfaJ9Gsbl/7Rnr+wZoP0CbPg56Xpg7fWM/Uh6MOt7mvo0ZC21jG0QlKPD1yTzsV67PfuRfRC6YVd2xPpO6lulfRqyAbb/WDYlMwiQbMoa5jb7scykdIYCMqa1Ppv2aWiV/zusLTqpNWQv6OoN2Rkas64mqzbVgRryriEMCTAUAIYwhCEMYQhDPjCEIQxhCEMY8oEhDGEIQxjCkA8MYQhDGMIQhnxgCEMYwhCGMOQDQxjCEIYwhCEfGMIQhjCEIQz5wBCGMIQhDGHIB4YwhCEMYQhDPjCEIQxhCEMY8oEhDGEIQxjCkA8MYQhDGMIQhnxgCEMYwhCGMOQDQxjC8G8ZYpbdgRouy//PbOruuJzt+rpkm6blpmTpqOX18eOGTd0dnstNyf6EPg1ZWnsyY3m57KxDZlpnl4tc2KS8XEf2o8mm/ual2sOs848rc/XqdqOZrFwMs7L0ZJnN6cT83uPKvlgorN+VA+7Fy68uYje7h7ivzPw//l45oLIIVXC/Xtfq1OSn+3pvr9aL7Xf1h/i0P2b582KSizw77k9PASaz3Wo3e1opLXiz/6v1G/tewSMORz/PdTAKf8ZnHsLDz4U5mu//AKuwCABDTcBQABhqAoYC/H3DMTuU7IKfKiFhya60SlbLfbH0khZYq1R6tVxiaLxaIqx/IhaUL2s4WrGD7V9U9HsnIOu9H2VvDxHJD8Y+OUSmbqJDQhe0n0nnLLJ6smG4tjXTjWW7NCT5laZJl8kQyRSsNL3VLfGWrbzgR5zx09FG9rqRLMDC5aekCfe576MlJ35SmqjvTG3BQIuir6IQfuM5/PR6x5F/UBCSXLfPD3LZ6toT0cTmJ9oj9qSDWnLkpUfX161m+Jdj6gno/Qdg+dWoqCTO3wAAAABJRU5ErkJggg==;" vertex="1" parent="xjHob3qZV44p0iBS6s6t-1">
          <mxGeometry x="180" y="450" width="40" height="40" as="geometry" />
        </mxCell>
        <mxCell id="xjHob3qZV44p0iBS6s6t-48" value="" style="shape=image;verticalLabelPosition=bottom;labelBackgroundColor=default;verticalAlign=top;aspect=fixed;imageAspect=0;image=data:image/png,iVBORw0KGgoAAAANSUhEUgAAAgAAAAIACAYAAAD0eNT6AAAABHNCSVQICAgIfAhkiAAAAAlwSFlzAAAOIwAADiMBj1VACgAAABl0RVh0U29mdHdhcmUAd3d3Lmlua3NjYXBlLm9yZ5vuPBoAACAASURBVHic7d15lGVlebbx62kmldEIAnFcqKDGEREnggwCzqgYEzQSTfKpK0aXQ4xTEvNpHPKpMVnROKLRRI1xxBlQRFDR4CyJgmgEEUdUJpmafr4/zqmu6uqqrjpVe7/vHq7fWrWE7qrzPGjLfZ/37LNPZCaSJGlcNtReQJKkJsXELhGxQ+1duiw8AZAk9UFEBHAz4HbAbRf85y2A3YBdp187AzH9sWuAyxd8/Rz4LnD+gv/8XmZeU+wfpCMsAJKkToqI7YEDgfsDhwKHAHu0MOp64GvAZ4EzgDMz81ctzOkUC4AkqTMiYg/g0dOv+wG7VFgjgW8BHwXelZn/XWGH1lkAJElVRcQNgYcBjwUeBOxYd6OtfAt4F/DuzLyg9jJNsQBIkqqIiFsDzwKewOS1+65L4DPAKzPzk7WXWS8LgCSpqIi4O/Ac4DHAdpXXWatvAq8E/iMzN9ZeZi0sAJKkIiLiYODvgKNq79KgHwKvAN6YmdfXXmYWFgBJUqsiYi/g5cAfM//2vKH5BvDnmfm52ousljcCkiS1IiK2i4inAecBf8Jwwx/grsCZEfFvEbFP7WVWwxMASVLjIuKuwDuAu9TepYLLgOdm5htqL7ItngBIkhoVEU8FvsQ4wx8mdyV8fUS8PyJuXHuZ5XgCIElqxDTsTgQeWXuXDrkQeGxmfr72Iot5AiBJWreIuA/wdQz/xW4JfDYiXjj9LIPO8ARAkrQuEXEc8E5gp9q7dNw7gSdm5nW1FwFPACRJ6xARfwb8J4b/ajwO+EhE7Fx7EbAASJLWKCJeArwOs2QWxwCfiYg9ay/iSwCSpJlExHbAG5m8t19rcx5wdM0PF7IASJJWbRr+b2dynK31uQA4LDN/UGO4xzaSpFUx/Bt3K+D06aciFmcBkCStyPBvTbUSYAGQJG2T4d+6KiXAAiBJWpbhX0zxEmABkCQtyfAvrmgJsABIkrZi+FdTrARYACRJWzD8qytSArwPgCRps56G/2XAjxd9/QzYFdh30dde9OfJb6v3CbAASJKAXoX/r4BPAh8FTs7MS1b7gxGxPXBf4KHTrzu0smFzWisBFgBJUh/C/wfAe5mE/ucz8/omHjQi9gMeAhwLHNnEY7aglRJgAZCkket4+F8MvBg4MTM3tjkoIg4GXgo8oM05a9R4CbAASNKIdTj8LwFeAbwuM68qOTgijgBeBtyr5NxVaLQEWAAkaaQ6Gv7XMQn+V2XmZTUXiYhjgVcDt6m5xyKNlQALgCSNUEfD/xfAcZl5Ru1F5kTEHsB7gKNr77LABcD91/tRwn15K4QkqSEdDf9vAvfsUvgDZOavgQcDr6m9ywK3Ak6OiD3X8yAWAEkakY6G/weA+7b1fvf1yszrM/NZwBOAayqvM+cA4GMRsfNaH8ACIEkj0dHw/7/AozPzytqLrCQz3w4cBvy08ipzDgbeHxE7rOWHvQZAkkago+H/zMz8x9pLzCoibg98Btin9i5T7wQenzMGuicAkjRwhn+zMvM7wOHAT2rvMvU44Hmz/pAnAJI0YIZ/ezp2ErARODQzz1rtD1gAJGmgDP/2dawEXADcbfrOhRX5EoAkDVBEbMDwb13HXg64FfDm1X6zBUCSBmYa/u/A8C+iYyXg0RHxf1bzjb4EIEkDYvjX06GXA34N7J+ZP9/WN3kCIEkDYfjX1aGTgD2Al6/0TZ4ASNIAGP7d0ZGTgATulZlnL/cNngBIUs8Z/t3SkZOAAF4bEbHcN1gAJKnHDP9u6kgJOBg4Ybnf9CUASeqpBW/1+8Pauyww+vBfqAMvB5wH3CEzNy3+DU8AJKmHDP9+6MBJwP7AI5f6DU8AJKlnOhr+32NyF7orai/SRZVPAs7OzIMX/+LgC8D0/yj7ALtNv3Zd9Nfb19tODUjgcuDHwAWZ+T+V95Fa1dHwn/M54EGWgKVNS8DpwN4Vxh+Zmadtsc9QCkBE3Ai4M3DAoq/bATtVXE1lXQicBLwyM39YexmpSR0P/zmWgG2IiPswKQE7Fh59cmY+cItd+loAImIn4D7AEUxeX7kXsEPVpdQllwHPzsy31F5EakJPwn+OJWAbIuKJwFsLj90E3DIzf7R5jz4VgIjYB3gs8BDgvsAN6m6kHjgZ+NPMvKj2ItJa9Sz851gCtiEiXgM8o/DYZ2fmP2zeoesFICJuCBzL5L2MRwPb1d1IPXQpcEhmnlN7EWlWPQ3/OZaAZUw/qvkTwFEFx34lMw/avENXC0BEHAj8GfB7TC7Yk9bjK8C9M3Nj7UWk1ep5+M+xBCwjIm4MfBnYr+DYAzLzPOjgfQAi4r4R8XEm/8L+Ewx/NeMewPNqLyGt1kDCH+AQ4BMRsUvtRbomM38F/GXhsY+d+4vOnABExJHAC5lc0Ce14VrgoMz8Vu1FpG0ZUPgv5EnAMiLibOCgFb+xGZvvCVC9AEyP+v+ZyUV9UttOz0xLpjproOE/xxKwhIg4mskFyyVsBPbIzCurvQQQEXtExGuBszH8Vc6hEXHT2ktISxl4+IMvBywpM09hcm+AErYH7g2VrgGIiMcD3wGeWmsHjdYG4KG1l5AWG0H4z7EELO0FBWf9LhQO34i4dUR8lslHV9a4FaIEcPvaC0gLjSj851gCFsnMs4AzCo07BAoWgIh4FPA14NBSM6Vl7Ft7AWnOCMN/jiVgax8uNOdeMf2D16qI2Cki/hl4P7BH2/OkVdi19gISjDr851gCtvTRQnN2AW7WagGIiNsAXwD+vM050ox+VnsByfDfzBIwlZnnAucXGrd/awUgIg5jcjOfA9uaIa3RxbUX0LgZ/luxBMz7WKE57RSA6ev9nwR2b+PxpXX6Qu0FNF6G/7IsAROlXgZovgBExJOA9wI7Nf3YUgMuBT5TewmNU0fD/83ANbWXmLIEwOcLzWm2AETEXwNvxPf2q7vempnX1V5C49PR8H9mZj4JeASWgE7IzKuYPFFp256NBXVEvAJ4cVOPJ7XgfOCvai+h8elw+P8jQGZ+EktAl/y0wIydGykAEfFM4LlNPJbUkk3AEzLzN7UX0bh0PfznWAI65ScFZuyy7gIQEccDr25gGalNr8nMUq+tSUB/wn+OJaAzSpwArK8ARMRRTP5wRzP7SK14Nx79q7C+hf8cS0AnlDgBWPtLANOP8f0AsENz+0iN+jnw6Mx8bGZeXXsZjUdfw3+OJaC6KwvM2HFNBSAibswk/MfyP4b654PAnTLz/bUX0bj0PfznWAKq2qvAjCvXegLwr8CtGlxEWo9kcnvfs4GXAPfIzEdlprf8VVFDCf85loBq9ikw48rIzJl+IiKeDbyqnX0adw1wDpNbvy719WO68wdba5PAlZm5sfYiGrehhf9CEfFA4EN05wZvnwMelJlX1F6kDRHxZeAeLY/57kwFICLuzeTzirv8uv+lTO6l/CHgE0P9AyKpO4Yc/nMsAeVExA+Bm7c85murLgARsQfwDeCWra60Nj8CTmLyh/N07/QmqZQxhP8cS0D7IiKYnEy3/UT7zFmuAXgZ3Qv/bwEPA26RmU/NzFMNf0mljCn8wWsCCrk5ZU7ZL1xVAYiIg4Ant7zMLC4EngDcLTM/mrNeyCBJ6zS28J9jCWjdAwvNOW/FAjD9Q/4vdOMDfn4J/AWwf2a+PTM31V5I0vhM/734r4ws/OdYAlr10EJzVi4AwJOAe7a9yQqSyTsP9svMV2dmV/7QSRqZBeH/+MqrLFQs/OdYApoXETcAjiw07rxtXgQYEXsB5wI3LrTQUn4DnOANXSTVZvhvzQsDmzP97/IThcbtttIJwPOoG/4/BO5n+EuqzfBfmicBjSp1/H9BZl6+bAGIiD2pe+HfWcA9M/PrFXeQJMN/BZaA9Zse/z+q0LgzYdsX9j0D2LnMLlt5B3B4Zpb4SERJWpbhvzqWgHV7KrBvoVlnAix5DUBE7A5cAOxeaJmF/iEzn11hriRtwfCfndcEzC4idgO+D9yk0Mg7Zua3lzsBeBp1wv9jwHMqzJWkLRj+a+NJwJo8i3Lh/wvgO7DECcD0dYiLCi4z59vAvTPzssJzJWkLhv/6eRKwOtPr7b4P7Fpo5Acy8zhY+hqAh1E+/H8JPMzwl1Sb4d8MTwJW7YWUC3+A9839xVIF4ISCiwBsBB6Tmd8rPFeStmD4N8sSsG0R8SDg6QVHXsnkg/OARQUgIm5KufsQz3lmZn668ExJ2oLh3w5LwNIi4gDg3ZS9zf5Jmfmbub9ZPPh4YPuCy5yRma8tOE+StmL4t8sSsKXpO+1OovzF9u/aYo+FFwFGxFeAAwsuc+/M/FLBeZK0BcO/HC8M3Pzn7SPAg0vNnLoE2Dczr5v7hc0nABGxP2XD/32Gv6SaDP+yPAkA4GWUD3+ANy4Mf9jyJYBSn0AEkwv/XlBwniRtwfCvY8wlICKeBzy37TlLuBr4p8W/uLAAHFFuF96Umd8tOE+SNjP86xpjCYiI5wMvb+vxV/C2zPzZ4l+MzCQiAvgZsGeBRa4AbrPUMpLUNsO/O8ZyTcA0/F/W5GPO4Hpg/8z8/uLfmDsBuDNlwh/gdYa/pBoM/24Zw0lARLyAeuEP8N6lwh/mC0DJ4///LDhLkgDDv6uGXAKm4f/S9a+0ZtcCL1ruN+cKwKFlduHCzPxqoVmSBBj+XTfEEhARL6Ru+AO8JjPPW+435wrAHQstc9LK3yJJzTH8+2FIJWAa/n/X/EozuXilHTZExPbAfmX24UOF5kiS4d8zQygBEfFX1A9/gOesdDFjAPsD5xZY5pfA3pm5scAsSSNn+PdXX98dEBF/Dby4zErbdGZmrvjS/gbggALLAHzM8JdUguHfb308CehQ+F8GPHE131iyAHyk0BxJI2b4D0OfSkBE/A3dCH+Ap2Tm91bzjSULwPmF5kgaKcN/WPpQAqbh/3/rrbSFt2Xmu1f7zRuAm7a4zEIXF5ojaYQM/2HqcgmIiBfRnfA/F3jaLD8QwGnA4a2sM28jsFNmbmp5jqQRMvyHr4MXBl4I3LL2ElNXAPfLzG/O8kMbgN3a2WcLPzH8JbXB8B+HDp4EdCX8rwOOmzX8YVIAdm1+n614/C+pcYb/uHSwBNSWwB9n5ilr+eFSJwAWAEmNMvzHyRKwhb/MzH9f6w9bACT1juE/bpYAYHKf/1et5wE2ADdqaJlt+UWBGZJGYBr+b8PwH7WRl4DXA89e74NsWPlbGpGF5kgasAXhf0LtXRYw/CsZaQl4PfDUzFx3rpYqAJK0Loa/ljKyEtBY+IMFQFIPGP7alpGUgEbDHywAkjrO8NdqDLwENB7+YAGQ1GGGv2Yx0BLQSviDBUBSRxn+WouBlYDWwh8sAJI6yPDXegykBLQa/mABkNQxhr+a0PMS0Hr4gwVAUocY/mpST0tAkfAHC4CkjjD81YaelYBi4Q8WAEkdYPirTT0pAUXDHywAkioz/FVCx0tA8fAHC4Ckigx/lTQtAe+rvcciVcIfLACSKjH8VVpE/C3wuNp7LFAt/MECIKkCw1+lTcP/RbX3WKBq+IMFQFJhhr9KM/yXZgGQVIzhr9IM/+VZACQVYfirNMN/2ywAklpn+Ks0w39lFgBJrTL8VZrhvzoWAEmtMfxVmuG/ehYASa0w/FWa4T8bC4Ckxhn+Ks3wn50FQFKjDH+VZvivjQVAUmMMf5Vm+K+dBUBSIwx/lWb4r48FQNK6Gf4qzfBfPwuApHUx/FWa4d8MC4CkNTP8VZrh3xwLgKQ1MfxVmuHfLAuApJkZ/irN8G+eBUDSTAx/lWb4t8MCIGnVpuH/Vgx/FWL4t8cCIGlVFoT/H9XeZQHDf8AM/3ZZACStyPBXaYZ/+ywAkrbJ8Fdphn8ZFgBJyzL8VZrhX44FQNKSDH+VZviXZQGQtBXDX6UZ/uVZACRtwfBXaYZ/HRYASZsZ/irN8K/HAiAJMPxVnuFflwVAkuGv4gz/+iwA0sgZ/irN8O8GC4A0Yoa/SjP8u8MCII2U4a/SDP9usQBII2T4qzTDv3ssANLIGP4qzfDvJguANCKGv0oz/LvLAiCNhOGv0gz/brMASCNg+Ks0w7/7LADSwBn+Ks3w7wcLgDRghr9KM/z7wwIgDZThr9IM/36xAEgDZPirNMO/fywA0sAY/irN8O8nC4A0IIa/SjP8+8sCIA2E4a/SDP9+swBIA2D4qzTDv/8sAFLPGf4qzfAfBguA1GOGv0oz/IfDAiD1lOGv0gz/YbEASD1k+Ks0w394LABSzxj+Ks3wHyYLgNQjhr9KM/yHywIg9cQ0/E/E8Fchhv+wWQCkHlgQ/k+ovMpChv+AGf7DZwGQOs7wV2mG/zhYAKQOM/xVmuE/HhYAqaMMf5Vm+I+LBUDqIMNfpRn+42MBkDrG8Fdphv84WQCkDjH8VZrhP14WAKkjDH+VZviPmwVA6gDDX6UZ/rIASJUZ/irN8BdYAKSqDH+VZvhrjgVAqsTwV2mGvxayAEgVGP4qzfDXYhYAqTDDX6UZ/lqKBUAqyPBXaYa/lmMBkAox/FWa4a9tsQBIBRj+Ks3w10osAFLLDH+VZvhrNSwAUosMf5Vm+Gu1LABSSwx/lWb4axYWAKkFhr9KM/w1KwuA1DDDX6UZ/loLC4DUIMNfpRn+WisLgNQQw1+lGf5aDwuA1ADDX6UZ/lovC4C0Toa/SjP81QQLgLQOhr9KM/zVFAuAtEaGv0oz/NUkC4C0Boa/SjP81TQLgDQjw1+lGf5qgwVAmoHhr9IMf7XFAiCtkuGv0gx/tckCIK3CNPzfguGvQgx/tc0CIK1gQfg/sfYuCxj+A2b4qwQLgLQNhr9KM/xVigVAWobhr9IMf5VkAZCWYPirNMNfpVkApEUMf5Vm+KsGC4C0gOGv0gx/1WIBkKYMf5Vm+KsmC4CE4a/yDH/VZgHQ6Bn+Ks3wVxdYADRqhr9KM/zVFRYAjZbhr9IMf3WJBUCjZPirNMNfXWMB0OgY/irN8FcXWQA0Koa/SjP81VUWAI2G4a/SDH91mQVAo2D4qzTDX11nAdDgGf4qzfBXH1gANGiGv0oz/NUXFgANluGv0gx/9YkFQINk+Ks0w199YwHQ4Bj+Ks3wVx9ZADQohr9KM/zVVxYADYbhr9IMf/WZBUCDYPirNMNffWcBUO8Z/irN8NcQWADUa4a/SjP8NRQWAPWW4a/SDH8NiQVAvWT4qzTDX0NjAVDvGP4qzfDXEFkA1CuGv0oz/DVUFgD1huGv0gx/DZkFQH3yagx/FWL4a+gsAOqFiPh94Bm191jA8B8ww19jYAFQ50XEAUyO/rvC8B8ww19jYQFQH/wtsEvtJaYM/wEz/DUmFgB1WkT8NnBc7T2mDP8BM/w1NhYAdd2TgR1qL4HhP2iGv8bIAqCu+73aC2D4D5rhr7GyAKizIuIWwB0qr2H4D5jhrzGzAKjLjqk8/z2G/3AZ/ho7C4C6rHYBeExE/HHlHdQCw1+yAKijImI74MjaawBvsQQMi+EvTVgA1FX3BG5cewksAYNi+EvzLADqqtrH/wtZAgbA8Je2ZAFQV3WpAIAloNcMf2lrFgB1TkTsARxce48lWAJ6yPCXlmYBUBc9ANiu9hLLsAT0iOEvLc8CoC7q2vH/YpaAHjD8pW2zAKiLjq69wCpYAjrM8JdWZgFQp0TE7YFb1t5jlSwBHWT4S6tjAVDXdP34fzFLQIcY/tLqWQDUNX0rAGAJ6ATDX5qNBUCdERE7AfevvccaWQIqMvyl2VkA1CW/C9yo9hLrYAmowPCX1sYCoC7p4/H/YpaAggx/ae0sAOqSIRQAsAQUYfhL62MBUCdExL7AnWvv0SBLQIsMf2n9LADqij7c/GdWloAWGP5SMywA6oqhHP8vZglokOEvNccCoOoiYgNwVO09WmQJaIDhLzXLAqAuOBDYs/YSLbMErIPhLzXPAqAuGOrx/2KWgDUw/KV2WADUBWMpAGAJmInhL7XHAqCqImJX4D6Fxl1caM5KAnhzRDyx9iJdZvhL7bIAqLYjgO0LzToGeF+hWSvZAJzoScDSDH+pfRYA1Vbq+P+CzDwHOJ7ulABfDliC4S+VYQFQbaUKwCkAmbkRS0BnGf5SORYAVRMRtwX2KzTu5Lm/sAR0k+EvlWUBUE2lnv1fD3x64S9YArrF8JfKswCoplIF4EuZ+evFv2gJ6AbDX6rDAqAqImIH4PBC405e7jcsAXUZ/lI9FgDVcj9gl0Kzli0AYAmoxfCX6rIAqJZSH//7S+Dslb7JElCW4S/VZwFQLaVe//9UZm5azTdaAsow/KVusACouIi4KXD3QuNOmeWbLQHtMvyl7rAAqIajmARbCdt8/X8ploB2GP5St1gAVEOp4///ycyL1vKDloBmGf5S91gAVFREBOUuAJz52f9CloBmGP5SN1kAVNpdgb0LzVpXAQBLwHoZ/lJ3WQBUWqln/1cDZzTxQJaAtTH8pW6zAKi0Uq//n5GZVzX1YJaA2Rj+UvdZAFRMROwMHFJo3LqP/xezBKyO4S/1gwVAJR0G7Fho1kzv/18tS8C2Gf5Sf1gAVFKp4/8fZeY5bT24JWCZJQx/qVcsACqpVAFo5dn/QpaARcMNf6l3LAAqIiJuDexfaFzjr/8vxRIwHWr4S71kAVAppZ79bwI+VWjW6EuA4S/1lwVApZR6//+XM/OSQrOA8ZYAw1/qNwuAWhcR2wNHFhpX5Ph/sbGVAMNf6j8LgEq4F7B7oVmtXwC4nLGUAMNfGgYLgEoo9fr/pcAXC81a0tBLgOEvDYcFQCWUKgCnTQO4qqGWAMNfGhYLgFoVEb8FHFRoXJXX/5cytBJg+EvDYwFQ246i3J+zzhQAGE4JMPylYbIAqG2ljv/Py8wfFJq1an0vAYa/NFwWALWt1Pv/O/Xsf6G+lgDDXxo2C4BaExG/A9ys0LjOFgDoXwkw/KXhswCoTaWO/68FTi80a836UgIMf2kcLABqU6kC8PnMvLLQrHXpegkw/KXx2L72AhqmiLghcGihcZ0+/l8sMzdGxPHTv3101WUm5krAscDDay+zgOEvtcgTALXlUOAGhWb1qgBAZ08CDH9pRCwAakup4/+fAt8oNKtRHSwBXWH4SwVYANSWUm//O6XPQWEJ2IrhLxViAVDjIuLmwO8UGte74//FLAGbGf5SQRYAtaHUs/8ETi00q1WWAMNfKs0CoDaUev3/65n5s0KzWjfiEmD4SxX4NkA1KiI2AA8oNK73x/+LdfAtgm0z/DUoEbEdcBvg5sBNgUuAi4DvZea1NXdbzAKgpt0T+K1CswZXAGBUJcDw12BExDHACcADWfrfgVdExKnAezLzPUWXW4YvAahppY7/rwA+X2hWcSN4OcDw1yBExB4R8Q7gk8BjWf4J0C7AI4H/iIiPR8Rvl9pxORYANa1UAfhMZl5XaFYVAy4Bhr8GISIeCJwDPH7GH30QcM6Ck74qLABqTETsDtyr0LhBHv8vNsASYPhrECLiRcAnWPsnnt4YeFdEvL65rWZjAVCTjgS2KzRrFAVg6nrglUDf3/Fg+GsQIuJ+wN809HBPiYhHNfRYM7EAqEmljv+/n5nnF5pVRUTsHRF/GBH/BvwE+BKTK4r7yvDXIEw/6OxtNJufb4iIvRp8vFXxXQBqUqkCcEqhOcVExA7A/Zj8d3gMcDcmH9AzBIa/huRlwO0afsy9gDcAxzX8uNtkAVAjIuIA4FaFxg3i+D8ibst84B/O5CrhoTH8NRgRcRfg6S09/KMi4qGZ+dGWHn8rFgA1pdSz/43AaYVmNSoidgWOYD7096u7UesMfw3N79PuS+fHAxYA9U6pAnBWZl5WaNa6REQABzIf+PcBdqi6VDmGv4boES0//kMiYodSb3G2AGjdImJH4LBC4zp9/B8R+zD5MKRjgKOYvLY3Noa/Bmd6i9/btzxmdya3EP7flucAFgA14xDgRoVmdaoATMvPIcw/y78Lw7l4by0Mfw3V3pR559y+WADUI6WO/38BfLXQrGVFxP7MB/5hwM5VF+oOw19DtufA5lgA1IhSBeBTmbmp0KzNImI3Jjc5mgv9W5feoQcMfw1dqfvmFLs/jwVA6zJ9zfsuhcYVOf6ffqTxgUw+1esY4N74/5VtMfylHvJfalqvoyn3mndrNwCKiH3Z8uK9YsdwPWf4Sz1lAdB6lTr+/1ZmXtzUg0XETmx98Z5mY/hLPWYB0JpN3+d+VKFx6z7+n96tcOHFe6XeuTBEhr/UcxYArcfdKfc+95kLwPTjiRdevFfqVsVDZ/hLA2AB0HqUOv6/CjhzpW+aXrx3EPOBfy/8M940w18aCP/lqPUoVQBOz8xrlvqNiLgZ8xfvPQC4SaGdxujvgecb/tIwWAC0JtMPtrlvoXGbr/6PiBsAv8v8s/w7FdphzC4DnpCZH6y9iKTmWAC0VodT7oNtLoyIZzAJ/PsDNyw0d+yuAf4TeHFmnl97GUnNsgBorUod/wO8v+CssUsmt1t+L3BiZv6i8j6SWmIB0FqVLABq10+YvMxyMnBqZv688j6SCrAAaGYRcRvgNrX30JpdC3yOSeCfnJnfqLyPpAosAFqLo2svoJmdyyTwT2HyroorK+8jqTILgNbC4//uuxT4NPPP8i+ovI+kjrEAaCYRsQNwRO09tJVNwJeZBj7wpczcWHclSV1mAdCs7gPsWnsJAfAj5i/e+1RmXlJ5H0k9YgHQrDz+r+dqJrdEnjvWP6fyPpJ6zAKgWVkAyvo288f6n83MqyrvI2kgLABatYjYEziw9h4D9yu2vHjvh5X3kTRQFgDN4iggai8xMNcDZzP/LP+/MvP6uitJGgMLgGbh8X8zfsh84H86M39VeR9JI2QB0Cy8AdDaXAV8lvlj/W9X3keSLABanYi4C7Bv7T165Bzmn+WfmZlXV95HkrZgAdBqefy/bZcAn2J6u93M/FHlfSRpmywAWq27116gYzYCX2L+Wf6XM3NT3ZUkafUsAFqt29ZeoAMuYMuL9y6txYxXTQAACq9JREFUvI8krZkFQKs1xgLwG+B05i/eO7fuOpLUHAuAVhQRwXju//8N5j8293OZeU3lfSSpFRYArSgzMyIuAm5de5cW/Bw4lfmL935SeR9JKsICoNX6AcMoANcBZzH/Wv5XMzPrriRJ5VkAtFrfAQ6rvcQafZ/5wD8tMy+vvI8kVWcB0Gq9HXhK7SVW6QrgM8xfvHd+5X0kqXMsAFqVzPxiRHwTuEvtXZaQwNeZf5b/+cy8ru5KktRtFgDN4p+AE2svMfVTtrx472eV95GkXrEAaNUy860R8RDgURXGXwt8gfln+V/34j1JWjsLgGb1RODOwO0KzPou84F/emZeUWCmJI2CBUAzyczLIuJhwIeB/Rt++MuA05i/eO9/G358SdKUBUAzy8xzI+Ig4K3Ao9fxUJuArzL/LP+szNzYwIqSpBVYALQm0/fS/15EnAA8HbjHKn/0x0xus3sycGpm/qKlFSVJ22AB0Lpk5juAd0TEPYATgDsC+wG3ZHKkfz7wPeBrTI71v1lrV0nSPAuAGpGZXwG+Mvf3ERFepS9J3bWh9gIaJsNfkrrNAiBJ0ghZACRJGiELgCRJI2QBkCRphCwAkiSNkAVAkqQRsgBIkjRCFgBJkkbIAiBJ0ghZACRJGiELgCRJI2QBkCRphCwAkiSNkAVAkqQRsgBIkjRCFgBJkkbIAiBJ0ghZACRJGiELgCRJI2QBkCRphCwAkiSNkAVAkqQRsgBIkjRCFgBJkkbIAiBJ0ghZACRJGiELgCRJI2QBkCRphCwAkiSNkAVAkqQRsgBIkjRCFgBJkkbIAiBJ0ghZACRJGiELgCRJI2QBkCRphCwAkiSNkAVAkqQRsgBIkjRCFgBJkkbIAiBJ0ghZACRJGiELgCRJI2QBkCRphCwAkiSNkAVAkqQRsgBIkjRCFgBJkkbIAiBJ0ghZACRJGiELgCRJI2QBkCRphCwAkiSNkAVAkqQRsgBIkjRCFgBJkkbIAiBJ0ghZACRJGiELgCRJI2QBkCRphCwAkiSNkAVAkqQRsgBIkjRCFgBJkkbIAiBJ0ghZACRJGiELgCRJI2QBkCRphCwAkiSNUKkCYNGQJPVZqRzLQnPYAFxZYM5eBWZIktSWUjlWIpOBSQG4rMCc3y4wQ5KktpTKsRKZDEwKwOUF5lgAJEl9VirHSmQy4AmAJEmr4QnAGu0dEV4IKEnqK08A1mg7YO8CcyRJakOJApAULgA/LTRr30JzJElqWokM+3lmFn0b4LmFZh1QaI4kSY2JiF0pUwBK5TFQtgA8vNAcSZKa9GBg+wJzBlsAHhwROxaaJUlSUx5RaE7xAvC/wLUFZu0GHF5gjiRJjZg+cX1woXHfKTQHgA2ZeT1wfqF5pVqUJElNOJzJE9gSip8AAPxPoXnHRkQUmiVJ0nqVeuJ6FZMT+WLmCsBnC83bFzi40CxJktZs+oT12ELjvpCZGwvNAuYLwGkFZ/5BwVmSJK3VoZS7h03JHAYg5u45EBE/oczd+q4C9s/MiwrMkiRpTSLiDOB3C427b2aeVWgWMH8CAPCZQjNvCLy40CxJkmYWEQ+nXPhfDpxdaNZmCwtAyeOHP4qIOxWcJ0nSqkTEdsDLC448s/Tr/7BlAfhU4bmvKDhPkqTVeiJwx4LzSubvZrHwcwci4izg3gXnH5aZpd6BIEnSNkXEjYDvUu7jfzcBt8jMiwvN22zDor9/e+H5/6/wPEmStuUZlAt/gFNrhD9sXQDeA1xTcP7BEfH8gvMkSVpSRNwD+KvCY99ReN5msfijhyPifcBxBXfYBDwyMz9ccKYkSZtFxD5MrsS/ecGxlwN7Z+ZVBWdutvgEAMq/DLAB+HffFSBJqiEidgI+SNnwB3hvrfCHpQvAJ4DSr0fsCpwUETcpPFeSpDdR9gL4OSdWmLnZVgVg+l7EV1XYZT/gfRGxfYXZkqQRioi/AE6oMPqMzPxChbmbbXUNAGx+G8QFwJ7FN4K3AE/KpRaTJKkhEXEs8AGWPg1v2zGZeUqFuZst+Q+dmb8B/rHwLnP+FPhQROxSab4kaeAi4pnA+6kT/l+uHf6wzAkAQETszuQUYPeiG807B3h4Zhb9fGRJ0nBFxI7AG5jc7a+WR2bmhyrOB7bRfDLzUuB1BXdZ7E7A2RFxWMUdJEkDERF7M/ngu5rh/9/ASRXnb7bsCQBAROwBnAvctNhGW7sOeHpmvqHiDpKkHouIuzMJ3ltUXuUhmfnxyjsAK7z2kZm/Bp5TaJfl7AC8PiL+LSJKv0dTktRjEbFTRDwb+Bz1w/+DXQl/WOEEYPM3RZxBuc9F3pargX8CXjEtJ5IkbSUiAvhD4CXArSqvA/Ab4A6ZeWHtReas9urHPwOKf1bxEm4APBf4XkQ8a3r3JkmSNouIo4GvMrnPfhfCH+AlXQp/WOUJAEBEvAp4drvrzOwCJh/c8J7MvK72MpKkeiLiYOClwANq77LIt4G7di2nZikAuzBpVLdrdaO1uZTJLYxPAj4xfQeDJGnAImI74BDg2OnXfnU3WtJG4P617/q3lFUXAICIuCvwRSZH8V11HXA6kzLw4cz8Yd11JElNiYidgWOYBP5Dgd+qu9GKnpeZf197iaXMVAAAIuLJTG6i0Bc/WvB10aK/vxi4pt5qkqRFNgB7Azdb5uuWwI7VtpvNx4GHdvXW9jMXAICIeBdwfPPrSJI0CBcBd8vMS2ovspy1FoBdgK8A+ze+kSRJ/dbZ1/0XWtOHIGTmFcAjgF81u44kSb33tK6HP6zjU5Ay89tMLsC4qrl1JEnqtRf35db1a3oJYIsHiHgY8EFgu0Y2kiSpn96UmU+uvcRqrftzkDPzI0Bv/oElSWrBh5jcNbc31l0AADLzROD5TTyWJEk981ng+My8vvYis2ikAABk5iuApwGbmnpMSZI67iTgQZl5de1FZtVYAQDIzNcCf4A315EkDd+bgeMys5cXwzdaAAAy873Ag4DLmn5sSZI64iWZ+aS+HfsvtO53ASz7wBF3Y3IbxH1bGSBJUnnXA0/PzH+pvch6tVYAACJib+CdwJGtDZEkqYyLgT/IzDNrL9KExl8CWCgzfwocDbwILw6UJPXXKUzu7T+I8IeWTwC2GBRxBJPTgH2KDJQkaf2uZ/Ik9mVd/VS/tSpWAGDzSwJvAh5ebKgkSWtzPvAnmXlG7UXa0OpLAItl5k8z81gmBeAHJWdLkrRKVzN51n+noYY/FD4B2GJwxA2BFwLPAXassoQkSVv6OJNP8/t+7UXaVq0AbF4gYn/gNcCDqy4iSRqz7wJ/mZkfqr1IKUVfAlhKZp6XmQ8BDmLyqYKDushCktRp3wKOB+4wpvCHDpwALBYRdwJeADwGP2JYktSO/wJeCnxkaFf3r1bnCsCciLgt8BTgcfjWQUnS+l3N5GN735KZn669TG2dLQBzImI74CjgBOARwA3rbiRJ6pnPAW8H3puZl9Zepis6XwAWiojdgEcDDwHuD9yk7kaSpA66FvgicCrwrjFc0b8WvSoAC0VEAHcFjgAOBw4Fdqu6lCSpho3AV4DTpl+f7+tH9JbU2wKw2PSlgtsCByzxtVfF1SRJzfgNcB5w7qKv72TmlTUX66PBFIBtiYgbMTkd2A3YddFfb19xNUnSljYBVwKXAZcv+s/LxnrFfhv+PzB11rjm/XtyAAAAAElFTkSuQmCC;" vertex="1" parent="xjHob3qZV44p0iBS6s6t-1">
          <mxGeometry x="263.45" y="450" width="40" height="40" as="geometry" />
        </mxCell>
        <mxCell id="xjHob3qZV44p0iBS6s6t-51" value="" style="shape=image;verticalLabelPosition=bottom;labelBackgroundColor=default;verticalAlign=top;aspect=fixed;imageAspect=0;image=data:image/png,iVBORw0KGgoAAAANSUhEUgAAAgAAAAIACAMAAADDpiTIAAAAA3NCSVQICAjb4U/gAAAACXBIWXMAAA3XAAAN1wFCKJt4AAAAGXRFWHRTb2Z0d2FyZQB3d3cuaW5rc2NhcGUub3Jnm+48GgAAAm1QTFRF////AAAAAAAAAAAAAAAAAAAAAAAAAAAAAAAAAAAAAAAAAAAAAAAAAAAAAAAAAAAAAAAAAAAAAAAAAAAAAAAAAAAAAAAAAAAAAAAAAAAAAAAAAAAAAAAAAAAAAAAAAAAAAAAAAAAAAAAAAAAAAAAAAAAAAAAAAAAAAAAAAAAAAAAAAAAAAAAAAAAAAAAAAAAAAAAAAAAAAAAAAAAAAAAAAAAAAAAAAAAAAAAAAAAAAAAAAAAAAAAAAAAAAAAAAAAAAAAAAAAAAAAAAAAAAAAAAAAAAAAAAAAAAAAAAAAAAAAAAAAAAAAAAAAAAAAAAAAAAAAAAAAAAAAAAAAAAAAAAAAAAAAAAAAAAAAAAAAAAAAAAAAAAAAAAAAAAAAAAAAAAAAAAAAAAAAAAAAAAAAAAAAAAAAAAAAAAAAAAAAAAAAAAAAAAAAAAAAAAAAAAAAAAAAAAAAAAAAAAAAAAAAAAAAAAAAAAAAAAAAAAAAAAAAAAAAAAAAAAAAAAAAAAAAAAAAAAAAAAAAAAAAAAAAAAAAAAAAAAAAAAAAAAAAAAAAAAAAAAAAAAAAAAAAAAAAAAAAAAAAAAAAAAAAAAAAAAAAAAAAAAAAAAAAAAAAAAAAAAAAAAAAAAAAAAAAAAAAAAAAAAAAAAAAAAAAAAAAAAAAAAAAAAAAAAAAAAAAAAAAAAAAAAAAAAAAAAAAAAAAAAAAAAAAAAAAAAAAAAAAAAAAAAAAAAAAAAAAAAAAAAAAAAAAAAAAAAAAAAAAAAAAAAAAAAAAAAAAAAAAAAAAAAAAAAAAAAAAAAAAAAAAAAAAAAAAAAAAAAAAAAAAATkofWQAAAM50Uk5TAAECAwQFBgcICQoLDA0ODxAREhQVFhcaGx0eICEiIyQlJygpKy0uLzAyNjc4OTo7PD0+QEFDREVGR0hKS0xNTk9QUVJUVVdYWVpbXF1fYWJjZWZnaGlqbG5wcXJzdXd5e31/gIKEhYaHiImKi4yNj5GSlJeYmZqbnJ2en6CkpaanqKmqq62ur7Cys7S1tre4ubq7vL2+v8DBwsPFxsfIycrMzc7P0NHS09XW2Nna29zd3t/g4eLj5OXm5+jp6uvt8PHy8/T29/j5+vv8/f5wvDgMAAAfiklEQVQYGe3Bi1uU5b4G4AdmQKkFCIngIaC0wOhgkUVqBw07mJXpm5kaZIqFZpaWK8lWSSKZ2ckSMO0EGplKUXkAUUYOATM8f9Ne19r72nvt1gC/95vvg/ed+e4bPp/P5/P5fD6fz+fz+Xw+n8/n88WNpKzC2x546oUtu+sPfXn0uxOnfjl3qbsvHO7rvnTul1Mnvjv65aH63VteeOqB2wqzkuCLG2k3LlDVext/uhSmWPjST417q9WCG9Pgs1VS/gJVvfebTsak85u91WpBfhJ8FsmYt/qt4710Ue/xt1bPy4DPdMmF5Zs+bKdH2j/cVF6YDJ+Z0u956fOr9NzVz1+6Jx0+s8x4bEdLmOMm3LLjsRnwmeHmNbXnOQHO1665Gb6JlVm++wIn0IXd5ZnwTZDiyqYhTrihpspi+MbblKU1F2mMizVLp8A3brJXfDZEwwx9tiIbvnGQ+eShQRpp8NCTmfB5Kv2JAwM02MCBJ9Lh88i1j9b303j99Y9eC5/75u4M0RKhnXPhc1X6qu9ple9XpcPnlpK3e2md3rdL4HPBlOdO0lInn5sCX2zm1PTRYn01c+Bzbv4ntN4n8+FzJLismXGheVkQPl0Z6/9g3PhjfQZ8OqZvCzGuhLZNh09qZs0Q485QzUz4JPJ2DjIuDe7Mg28sOdv7Gbf6t+fAN5rsV3oZ13pfyYZvJBkbQ4x7oY0Z8EUzueIKE8KVisnw/YfydiaM9nL4/r/iBiaUhmL4/s/UXREmmMiuqfD9t5T13UxA3etT4Pun+08zQZ2+H76CT5nAPi1AYgtW9DGh9VUEkcDmNjPhNc9FokrbGqaP4a1pSEjz2+j7l7b5SDxZNZxQkf7Q5Qvtp1tbT7dfuBzqj3BC1WQhwSzt5Hi7cvKrD3ZWPb984S35WWkB/EUgLSv/loXLn6/a+cFXJ69wvHUuRSLJfI/jp7f1wOtrFxdlQENG0eK1rx9o7eX4eS8TCePO3zgueo6/uXreVMRg6rzVbx7v4bj47U4khmBVhF4bbtu/cUl+ElyRlL9k4/62YXotUhVEAij4lt7qa3x5URZcl7Xo5cY+euvbAsS9p3vooc7960pS4JmUknV1nfRQz9OIb9n76Jmr9SsLMA4KVtZfpWf2ZSOOlZ6jR05uKU3BuEkp3XKSHjlXirhVEaYXuvetyMO4y1uxr5teCFcgPqXX0QMDdQ+lYIKkPFQ3QA/UpSMOzf6Z7jumsjChstQxuu/n2Yg7S3votvZNhTBA4aZ2uq1nKeJLYBtd1v32XUkwRNJdf++my7YFEEdyjtBVQx8/MhlGmfzIx0N01ZEcxI1bz9NNLWunwUDT1rbQTedvRZx4fIDu6dh6E4x109YOumfgccSFF4fpml9XpsJoqSt/pWuGX4T9grvpmlPLgzBecPkpumZ3EJbL+IJuaS5PhhWSy5vpli8yYLXprXTJ1wthkYVf0yWt02GxuRfpjsN3wzJ3H6Y7Ls6FtRb10hUflcBCJR/RFb2LYKlnw3RBpLYIliqqjdAF4WdhpUq6YGjPDbDYDXuG6IJKWKiKsRt+ZyYsN/OdYcauCtbZztj9eAfiwB0/MnbbYZfkXYzZ1XVBxIXguquM2a5kWCT4LmNWm4e4kVfLmL0bhDVS6xirM/cirtx7hrGqS4Ul0g4xRv0bJiHOTNrQzxgdSoMV/naEMTo4C3Fo1kHG6MjfYIG0I4zN74sRpxb/ztgcSYPxUg8xJoPV1yBuXVM9yJgcSoXhgnWMyZHZiGuzjzAmdUEYLfldxuLyMsS9ZZcZi3eTYbJdjEVTHhJAXhNjsQsG284YDG8OICEENg8zBtthrCrGoOs+JIz7uhiDKhiqkjFozEUCyW1kDCphpGfp3PDmABJKYPMwnXsWBloUpmNdZUg4ZV10LLwIxpnbS8cac5GAchvpWO9cGGb6RTo1XBVAQgpUDdOpi9NhlIxWOtVVhoRV1kWnWjNgkOAXdKohFwkst4FOfRGEOXbToUhVAAktUBWhQ7thjBfpUHcZEl5ZNx16EYZ4fJjOdBTBh6IOOjP8OIxw6wCdOTsLvn+adZbODNwKA+ScpzM/5MD3Lzk/0JnzOZhwgSN05nA6fP8j/TCdORLARNtGZ2pT4ftfqbV0Zhsm2FI6syMZvn+TvIPOLMWEmt1DRzbA9xcb6EjPbEyg9J/pRGQVfP9hVYRO/JyOiVNHJ/58GL4oHv6TTtRhwlTQiVApfFGVhuhEBSZIaZgOdBTDN4LiDjoQLsWEyD5HB85eD9+Irj9LB85lYyLsowMncuAbRc4JOrAPE+BpOnA2B75R5ZylA09j3BX0UF/H9fCN4foO6uspwDgLfkt9oWL4xlQcor5vgxhfVdT3Zyl8AqV/Ul8VxtWdEWqLPAyfyMMRaovciXGU+Rv1rYJPaBX1/ZaJ8fMe9W2AT2wD9b2HcbOU+nbAp2EH9S3FOMnqpLbaZPg0JNdSW2cWxkcNtR1OhU9L6mFqq8G4mE9tP6TDpyn9B2qbj3GQ1kZdZ3Pg05Zzlrra0uC9rdTVMQs+B2Z1UNdWeG5umJq6i+BzpKibmsJz4bFgMzVFyuBzqCxCTc1BeKuCuqrgc6yKuirgqYI+amoIwOdYoIGa+grgpU+pqSsXvhjkdlHTp/DQ/dQ0XAZfTMqGqel+eCblNDVVwRejKmo6nQKvrKemxgB8MQo0UtN6eGRqN/V05cIXs9wu6umeCm/sop7hMphsTuX7DWd6es40vF85ByYrG6aeXfBEcYR6NsNc+a+18d+0vZYPc22mnkgxvNBAPY0BmOq6Nwb5F4NvXAdTBRqppwEeKKeerlyYak2IUYTWwFS5XdRTDtdNbqeW4ftgqEl7OII9k2Co+4appX0y3FZBPZthqGnHOKJj02CozdRTAZdlXKGWpgDMlN7KUbSmw0yBJmq5kgF3baSWy3kwU/JBjupgMsyUd5laNsJV2SFqWQZDvcoxvApDLaOWUDbc9Aq1HIGhbueYboehjlDLK3BRTi91DM6GoY5yTEdhqNmD1NGbA/dsp5ZqGOpBCjwIQ1VTy3a4Jq+fOn6/BoZqoUALDHXN79TRnwe37KSWxTBUAUUKYKjF1LITLpk5SB0HYar1FFkPUx2kjsGZcEcNdfTPgqmaKNIEU83qp44auGL6EHVsgKlSwxQJp8JUG6hjaDrcsI06zkyCqWZQaAZMNekMdWyDCzJC1HEvjFVCoRIY617qCGUgduupoxbmWkKhJTBXLXWsR8yCf1DD1TyY6xkKPQNz5V2lhj+CiNUy6lgHgykKKRhsHXUsQ6yaqeHHIAymKKRgsOCP1NCMGM2nhuE7YDJFIQWT3TFMDfMRm0+o4R0YTVFIwWjvUMMniMkcahiaCaMpCikYbeYQNcxBLGqoYQ/MpiikYLY91FCDGEzpo1zkBphNUUjBbDdEKNc3Bc49Rw21MJyikILhaqnhOTh3khqKYDhFIQXDFVHDSThWQg0fwXSKQgqm+4gaSuDU29RQAtMpCimYroQa3oZD6b2UOwzjKQopGO8w5XrT4cwqargbxlMUUjDe3dSwCs58T7mvYT5FIQXzfU257+HIXGpYCPMpCimYbyE1zIUTOynXDAsoCilYoJlyO+HAtSHKlcMCikIKFiinXOha6HuUcqeSYQFFIQULJJ+i3KPQV0+55bCBopCCDZZTrh7a0vsp9msQNlAUUrBB8FeK9adD1xOUWwkrKAopWGEl5Z6ArgMU60iFFRSFFKyQ2kGxA9CUOUCxrbCDopCCHbZSbCATep6k3E2wg6KQgh1uotyT0HOIYi2whKKQgiVaKHYIWrIHKbYWllAUUrDEWooNZkPHCooNTYMlFIUULDFtiGIroOMzin0MWygKKdjiY4p9Bg1Thij2CGyhKKRgi0coNjQFcksp1j0ZtlAUUrDF5G6KLYVcDcX+DmsoCilY4+8Uq4HcRYrdBWsoCilY4y6KXYRYMcXak2ANRSEFayS1U6wYUpUU2wR7KAop2GMTxSoh1USxQthDUUjBHoUUa4JQ5hCljsEiikIKFjlGqaFMyJRTTMEiikIKFlEUK4fMbkoNZMEiikIKFskaoNRuyFygVB1soiikYJM6Sl2AyM0Uewg2URRSsMlDFLsZEmso1Z0CmygKKdgkpZtSayBRS6l9sIqikIJV9lGqFhLnKbUCVlEUUrDKCkqdh8AMiuXBKopCClbJo9gMjO0xSp2EXRSFFOxyklKPYWw7KLUFdlEUUrDLFkrtwNhaKFUKuygKKdillFItGFN6mEJXU2AXRSEFu6RcpVA4HWO5h1L1sIyikIJl6il1D8byEqVWwjKKQgqWWUmplzCWzylVAMsoCilYpoBSn2MMyVcp1AnbKAop2KaTQleTMbpCSu2HbRSFFGyzn1KFGF05pdbBNopCCrZZR6lyjG4TpUpgG0UhBduUUGoTRvchhfpSYBtFIQXbpPRR6EOMrp1CjbCOopCCdRop1I5RZVDqZVhHUUjBOi9TKgOjmUepRbCOopCCdRZRah5Gs5pCw1mwjqKQgnWyhim0GqN5i0JtsI+ikIJ92ij0FkZznEL7YR9FIQX77KfQcYwiqZdCG2EfRSEF+2ykUG8SRpZPqSWwj6KQgn2WUCofI1tAqXzYR1FIwT75lFqAkSkK9STBPopCCvZJ6qGQwsiqKXQcFlIUUrDQcQpVY2R7KfQmLKQopGChNym0FyP7hkKrYSFFIQULrabQNxhZJ4XmwUKKQgoWmkehTowojVJTYSFFIQULTaVUGkZyI4V6YSNFIQUb9VLoRoxkAYVaYSNFIQUbtVJoAUaiKHQANlIUUrDRAQopjKSaQq/DRopCCjZ6nULVGMleCq2FjRSFFGy0lkJ7MZJGCi2GjRSFFGy0mEKNGMlPFCqCjRSFFGxURKGfMJJLFMqAjRSFFGyUQaFLGEFSmDJXYCVFIQUrXaFMOAnRZVHoJLyWOqNkyTPKZf+g0D+Uy55ZUjIjFV47SaEsRFdIoa/gqYL1TWHGnXDT+gJ46isKFSK62yj0ATz0YAvjVsuD8NAHFLoN0T1AoZ3wzO1HGdeO3g7P7KTQA4juKQpVwSPJrzLuvZoMj1RR6ClE9wKFnoc30g8yARxMhzeep9ALiG4LhZbDE9NamRBap8ETyym0BdHtptBCeGHSMSaIY5PghYUU2o3o6il0C7ywhwljD7xwC4XqEd0hCuXDA2uYQNbAA/kUOoTovqRQFtx3XYgJJHQd3JdFoS8R3VEKpcF9bzChvAH3pVHoKKL7jkIBuC5/kAllMB+uC1DoO0R3gjIRuO81JpjX4L4IZU4gulOU6Yf72phg2uC+fsqcQnS/UCYE181hwpkD14Uo8wuiO0eZy3BdJRNOJVx3mTLnEN0lylyA695nwnkfrrtAmUuIrpsy7XBdAxNOA1zXTpluRNdHmdNw3RkmnDNw3WnK9CG6MGVa4boeJpweuK6VMmFEF6ZMK1zXw4TTA9e1UiaM6PoocxquO8OEcwauO02ZPkTXTZl2uK6BCacBrmunTDeiu0SZC3Dd+0w478N1FyhzCdGdo8xluK6SCacSrrtMmXOI7hfKhOC6OUw4c+C6EGV+QXSnKNMP97UxwbTBff2UOYXoTlAmAve9xgTzGtwXocwJRPcdhQJwXf4gE8pgPlwXoNB3iO4ohdLgvjeYUN6A+9IodBTRfUmhLLjvuhATSOg6uC+LQl8iukMUyocH1jCBrIEH8il0CNHVU+gWeGEPE8YeeOEWCtUjut0UWggvTDrGBHFsErywkEK7Ed0WCi2HJ6a1MiG0ToMnllNoC6J7gULPwxvpB5kADqbDG89T6AVE9xSFquCR5FcZ915NhkeqKPQUonuAQjvhmduPMq4dvR2e2UmhBxDdbRT6AB56sIVxq+VBeOgDCt2G6Aop9BU8VbC+Kcy4E25aXwBPfUWhQkSXRaGT8FrqjJIlzyiX/YNC/1Aue2ZJyYxUeO0khbIQXVKYMldgJUUhBStdoUw4CSO4RKEM2EhRSMFGGRS6hJH8RKEi2EhRSMFGRRT6CSNppNBi2EhRSMFGiynUiJHspdBa2EhRSMFGaym0FyOpptDrsJGikIKNXqdQNUaiKHQANlIUUrDRAQopjGQBhVphI0UhBRu1UmgBRnIjhXphI0UhBRv1UuhGjCSNUlNhIUUhBQtNpVQaRtRJoXmwkKKQgoXmUagTI/uGQqthIUUhBQutptA3GNleCr0JCykKKVjoTQrtxciqKXQcFlIUUrDQcQpVY2SKQj1JsI+ikIJ9knoopDCyBZTKh30UhRTsk0+pBRhZPqWWwD6KQgr2WUKpfIwsqZdCG2EfRSEF+2ykUG8SRnGcQvthH0UhBfvsp9BxjOYtCrXBPopCCvZpo9BbGM1qCg1nwTqKQgrWyRqm0GqMZh6lFsE6ikIK1llEqXkYTQalXoZ1FIUUrPMypTIwqnYKNcI6ikIK1mmkUDtG9yGF+lJgG0UhBduk9FHoQ4xuE6VKYBtFIQXblFBqE0ZXTql1sI2ikIJt1lGqHKMrpNR+2EZRSME2+ylViNElX6VQJ2yjKKRgm04KXU3GGD6nVAEsoyikYJkCSn2OsbxEqZWwjKKQgmVWUuoljOUeStXDMopCCpapp9Q9GEt6mEJXU2AXRSEFu6RcpVA4HWNqoVQp7KIopGCXUkq1YGw7KLUFdlEUUrDLFkrtwNgeo9RJ2EVRSMEuJyn1GMY2g2J5sIqikIJV8ig2AwLnKbUCVlEUUrDKCkqdh0QtpfbBKopCClbZR6laSKyhVHcKbKIopGCTlG5KrYHEzRR7CDZRFFKwyUMUuxkiFyhVB5soCinYpI5SFyCzm1IDWbCIopCCRbIGKLUbMuUUU7CIopCCRRTFyiGTOUSpY7CIopCCRY5RaigTQk0UK4Q9FIUU7FFIsSZIVVJsE+yhKKRgj00Uq4RUMcXak2ANRSEFayS1U6wYYhcpdhesoSikYI27KHYRcjUU+zusoSikYI2/U6wGcksp1j0ZtlAUUrDF5G6KLYXclCGKPQJbKAop2OIRig1NgYbPKPYxbKEopGCLjyn2GXSsoNjQNFhCUUjBEtOGKLYCOrIHKbYWllAUUrDEWooNZkPLIYq1wBKKQgqWaKHYIeh5knI3wQ6KQgp2uIlyT0JP5gDFtsIOikIKdthKsYFMaDpAsY5UWEFRSMEKqR0UOwBdT1BuJaygKKRghZWUewK60vsp9msQNlAUUrBB8FeK9adDWz3llsMGikIKNlhOuXroe5Ryp5JhAUUhBQskn6Lco9B3bYhy5bCAopCCBcopF7oWDuykXDMsoCikYIFmyu2EE3OpYSHMpyikYL6F1DAXjnxPua9hPkUhBfN9Tbnv4cwqargbxlMUUjDe3dSwCs6k91LuMIynKKRgvMOU602HQ29TQwlMpyikYLoSangbTpVQw0cwnaKQguk+ooYSOHaSGopgOEUhBcMVUcNJOPccNdTCcIpCCoarpYbn4NyUPspFboDZFIUUzHZDhHJ9UxCDGmrYA7MpCimYbQ811CAWc6hhaCaMpiikYLSZQ9QwBzH5hBregdEUhRSM9g41fILYzKeG4TtgMkUhBZPdMUwN8xGjZmr4MQiDKQopGCz4IzU0I1bLqGMdDKYopGCwddSxDLEK/kENV/Ngrmco9AzMlXeVGv4IImbrqaMW5lpCoSUwVy11rEfsMkLUcS+MVUKhEhjrXuoIZcAF26jjzCSYagaFZsBUk85Qxza4YfoQdWyAqVLDFAmnwlQbqGNoOlxRQx39s2CqJoo0wVSz+qmjBu6YOUgdB2Gq9RRZD1MdpI7BmXDJTmpZDEMVUKQAhlpMLTvhlrx+6vj9GhiqhQItMNQ1v1NHfx5cs51aqmGoBynwIAxVTS3b4Z6cXuoYnA1DHeWYjsJQswepozcHLnqFWo7AULdzTLfDUEeo5RW4KTtELctgqFc5hldhqGXUEsqGqzZSy+U8mCn5IEd1MBlmyrtMLRvhrowr1NIUgJnSWzmK1nSYKdBELVcy4LIK6tkMQ007xhEdmwZDbaaeCrhtcju1DN8HQ03awxHsmQRD3TdMLe2T4bpy6unKhanWhBhFaA1MldtFPeXwQAP1NAZgquveGORfDL5xHUwVaKSeBnihOEI9m2Gu/Nfa+G/aXsuHuTZTT6QYnthFPcNlMNmcyvcbzvT0nGl4v3IOTFY2TD274I2p3dTTlQtfzHK7qKd7KjyynpoaA/DFKNBITevhlZTT1FQFX4yqqOl0CjxzPzUNl8EXk7JharofHvqUmrpy4YtBbhc1fQovFfRRU0MAPscCDdTUVwBPVVBXFXyOVVFXBbwVbKamSBl8DpVFqKk5CI/NDVNTdxF8jhR1U1N4Ljy3lbo6ZsHnwKwO6toK76W1UdfZHPi05ZylrrY0jIP51PZDOnya0n+gtvkYFzXUdjgVPi2ph6mtBuMjq5PaapPh05BcS22dWRgnS6lvB3wadlDfUoyb96hvA3xiG6jvPYyfzN+obxV8Qquo77dMjKM7I9QWeRg+kYcj1Ba5E+Oqivr+LIVPoPRP6qvC+Ap+S32hYvjGVByivm+DGGcFPdTXcT18Y7i+g/p6CjDunqYDZ3PgG1XOWTrwNCbAPjpwIge+UeScoAP7MBGyz9GBs9fDN6Lrz9KBc9mYEKVhOtBRDN8IijvoQLgUE6SCToRK4YuqNEQnKjBh6ujEnw/DF8XDf9KJOkyc9J/pRGQVfP9hVYRO/JyOCTS7h45sgO8vNtCRntmYUEvpzI5k+P5N8g46sxQTbBudqU2F73+l1tKZbZhogSN05nA6fP8j/TCdORLAhMs5T2d+yIHvX3J+oDPnc2CAWwfozNlZ8P3TrLN0ZuBWGOHxYTrTUQQfijrozPDjMMSLdKi7DAmvrJsOvQhj7KZDkaoAElqgKkKHdsMcwS/oVEMuElhuA536IgiDZLTSqa4yJKyyLjrVmgGjTL9Ip4arAkhIgaphOnVxOgwzt5eONeYiAeU20rHeuTDOojAd6ypDwinromPhRTDQs3RueHMACSWweZjOPQsjVTIGjblIILmNjEElDFXFGHTdh4RxXxdjUAVjbWcMhjcHkBACm4cZg+0w2C7GoikPCSCvibHYBZMlv8tYXF6GuLfsMmPxbjKMFqxjTI7MRlybfYQxqQvCcKmHGJPB6msQt66pHmRMDqXCeGlHGJvfFyNOLf6dsTmSBgv87QhjdHAW4tCsg4zRkb/BCmmHGKP+DZMQZyZt6GeMDqXBEql1jNWZexFX7j3DWNWlwhrBdxmz2jzEjbxaxuzdICySvIsxu7ouiLgQXHeVMduVDLtsZ+x+vANx4I4fGbvtsE4VYzf8zkxYbuY7w4xdFSxUSRcM7bkBFrthzxBdUAkrPRumCyK1RbBUUW2ELgg/C0st6qUrPiqBhUo+oit6F8Facy/SHYfvhmXuPkx3XJwLi01vpUu+XgiLLPyaLmmdDqtlfEG3NJcnwwrJ5c10yxcZsFxwN11zankQxgsuP0XX7A7Cfi8O0zW/rkyF0VJX/krXDL+IuPD4AN3TsfUmGOumrR10z8DjiBO3nqebWtZOg4GmrW2hm87firiRc4SuGvr4kckwyuRHPh6iq47kII4EttFl3W/flQRDJN319266bFsA8WVpD93WvqkQBijc1E639SxF3Jn9M913TGVhQmWpY3Tfz7MRh9Lr6IGBuodSMEFSHqoboAfq0hGfKsL0Qve+FXkYd3kr9nXTC+EKxK3Sc/TIyS2lKRg3KaVbTtIj50oRx7L30TNX61cWYBwUrKy/Ss/sy0Z8e7qHHurcv64kBZ5JKVlX10kP9TyNuFfwLb3V1/jyoiy4LmvRy4199Na3BUgAwaoIvTbctn/jkvwkuCIpf8nG/W3D9FqkKojEcOdvHBc9x99cPW8qYjB13uo3j/dwXPx2JxJG5nscP72tB15fu7goAxoyihavff1Aay/Hz3uZSCRLOznerpz86oOdVc8vX3hLflZaAH8RSMvKv2Xh8uerdn7w1ckrHG+dS5Fgsmo4oSL9ocsX2k+3tp5uv3A51B/hhKrJQuKZ30bfv7TNR0JK2xqmj+GtaUhUc5uZ8JrnIoEFK/qY0PoqgkhsBZ8ygX1aAN/9p5mgTt8P3z+lrO9mAupenwLff5u6K8IEE9k1Fb7/U9zAhNJQDN//V97OhNFeDt9/mFxxhQnhSsVk+KLJ2Bhi3AttzIBvJNmv9DKu9b6SDd9ocrb3M271b8+Bbyx5OwcZlwZ35sEnMbNmiHFnqGYmfFLTt4UYV0LbpsOnI2P9H4wbf6zPgE9XcFkz40LzsiB8jsz/hNb7ZD58zs2p6aPF+mrmwBebKc+dpKVOPjcFPheUvN1L6/S+XQKfW9JXfU+rfL8qHT5Xzd0ZoiVCO+fC575rH63vp/H66x+9Fj6PpD9xYIAGGzjwRDp8nsp88tAgjTR46MlM+MZB9orPhmiYoc9WZMM3bqYsrblIY1ysWToFvvFWXNk0xAk31FRZDN8EySzffYET6MLu8kz4JtbNa2rPcwKcr11zM3xmmPHYjpYwx024ZcdjM+AzS/o9L31+lZ67+vlL96TDZ6bkwvJNH7bTI+0fbiovTIbPdBnzVr91vJcu6j3+1up5GfBZJCl/gare+00nY9L5zd5qtSA/CT5bpd24QFXvbfzpUphi4Us/Ne6tVgtuTIMvbiRlFd72wFMvbNldf+jLo9+dOPXLuUvdfeFwX/elc7+cOvHd0S8P1e/e8sJTD9xWmJUEn8/n8/l8Pp/P5/P5fD6fz+fz+eLFfwHFFj2J/66AIwAAAABJRU5ErkJggg==;" vertex="1" parent="xjHob3qZV44p0iBS6s6t-1">
          <mxGeometry x="340.21000000000004" y="445" width="50" height="50" as="geometry" />
        </mxCell>
      </root>
    </mxGraphModel>
  </diagram>
</mxfile>
